<?xml version="1.0" encoding="UTF-8"?>
<svg version="1.1" xmlns="http://www.w3.org/2000/svg" width="512" height="512">
<path d="M0 0 C1.0277656 -0.00384115 2.0555312 -0.00768229 3.11444122 -0.01163983 C4.80571011 -0.01034011 4.80571011 -0.01034011 6.53114605 -0.00901413 C7.73018918 -0.01198525 8.92923231 -0.01495637 10.16461009 -0.01801753 C13.49413693 -0.02519779 16.82361217 -0.02787684 20.15314305 -0.028615 C23.74356643 -0.03046633 27.33397864 -0.03801403 30.92439556 -0.04475021 C38.77561644 -0.0583304 46.6268322 -0.06435765 54.47806287 -0.06876087 C59.38014443 -0.0715236 64.28222401 -0.07576099 69.18430424 -0.08026505 C82.75627328 -0.09245687 96.32824075 -0.10275664 109.90021515 -0.10614014 C110.76879144 -0.1063597 111.63736773 -0.10657927 112.53226451 -0.10680549 C113.40291861 -0.10702377 114.2735727 -0.10724204 115.17061025 -0.10746694 C116.93488777 -0.1079104 118.69916529 -0.10835697 120.4634428 -0.10880661 C121.33858537 -0.10902804 122.21372793 -0.10924947 123.11538997 -0.10947761 C137.29798949 -0.11342621 151.48053765 -0.13088249 165.66311733 -0.15416613 C180.22348959 -0.17787712 194.78383608 -0.19034186 209.34422797 -0.19150805 C217.51964852 -0.19242491 225.69500213 -0.19817999 233.87040424 -0.21632767 C240.83139967 -0.23172519 247.79230746 -0.23685116 254.75331668 -0.22858956 C258.30457 -0.22468192 261.85564684 -0.2256181 265.40687847 -0.23964691 C269.25786619 -0.25472073 273.10860531 -0.24652274 276.95961285 -0.23606491 C278.64084349 -0.24814952 278.64084349 -0.24814952 280.35603839 -0.26047826 C286.26723086 -0.2228631 290.86433585 -0.06444242 295.93585491 3.13142776 C299.75717844 8.17945585 299.35779721 13.61868958 299.31680584 19.68318558 C299.32148581 20.74580235 299.32616578 21.80841911 299.33098757 22.90323639 C299.34295332 26.46380214 299.33347386 30.02398415 299.32403851 33.58455276 C299.32810349 36.13724874 299.33344495 38.68994295 299.33996868 41.24263382 C299.35223506 47.45625687 299.35043012 53.66973783 299.34173076 59.88336277 C299.33495302 64.93371154 299.33403788 69.98402985 299.33730221 75.03438187 C299.33776191 75.75343051 299.33822161 76.47247916 299.33869524 77.21331716 C299.33965442 78.67409357 299.34062706 80.13486998 299.34161301 81.59564638 C299.35016572 95.29033758 299.34033465 108.98496851 299.32421191 122.67964983 C299.31080883 134.4279289 299.31313695 146.17611905 299.32696819 157.92439651 C299.34302612 171.57039606 299.34934176 185.21634279 299.3401314 198.86235046 C299.33917576 200.31772486 299.33823265 201.77309926 299.33730221 203.22847366 C299.33683938 203.94452813 299.33637655 204.6605826 299.3358997 205.3983357 C299.33331045 210.44206972 299.33767941 215.48577022 299.34474087 220.52949905 C299.35403779 227.31912214 299.34740983 234.10855131 299.3300581 240.89816666 C299.32608703 243.39188737 299.32723785 245.8856222 299.33384609 248.37933731 C299.34202684 251.77964007 299.33178129 255.17940179 299.31680584 258.57966995 C299.323498 259.56974674 299.33019017 260.55982353 299.33708513 261.57990265 C299.29203903 266.84229022 298.93218444 270.60338671 295.93585491 275.13142776 C290.46140556 279.37857685 283.72751856 278.54530584 277.1250639 278.50374222 C275.83499432 278.50739288 274.54492474 278.51104355 273.21576214 278.51480484 C269.68893443 278.52418382 266.16238569 278.51481432 262.63557982 278.50147271 C258.93969655 278.49012878 255.24382641 278.49426793 251.54793072 278.49621964 C245.34328961 278.49710157 239.13875796 278.48604235 232.93414593 278.46760941 C225.76544527 278.44643397 218.59690481 278.44293448 211.4281792 278.44917136 C204.5243703 278.45486972 197.62061769 278.4492144 190.7168169 278.43799782 C187.78192444 278.43335903 184.84706649 278.43247484 181.91217136 278.43458366 C177.81377962 278.43682032 173.71561147 278.42234472 169.6172514 278.40608597 C167.79288303 278.40980209 167.79288303 278.40980209 165.93165874 278.41359329 C164.81437389 278.40650848 163.69708904 278.39942368 162.54594707 278.39212418 C161.57756122 278.39007131 160.60917536 278.38801844 159.61144447 278.38590336 C156.65875268 278.10507254 154.56298464 277.5066402 151.93585491 276.13142776 C149.10272875 271.6317568 147.72687316 267.54715976 146.56085491 262.38142776 C143.16532933 248.04075055 134.9813911 236.72835268 122.65460491 228.66267776 C107.10753393 219.90628147 89.4646912 218.01305468 72.31085491 222.75642776 C57.44768062 227.8012278 46.89895397 236.49102142 39.36554241 250.22127151 C37.00418042 255.02786901 35.50558975 259.80156239 34.23663616 264.99080276 C33.99300335 265.96533401 33.74937054 266.93986526 33.49835491 267.94392776 C33.29339397 268.83724808 33.08843304 269.73056839 32.87726116 270.65095901 C31.74601664 273.63162405 30.37393876 275.10348887 27.93585491 277.13142776 C22.75802626 278.85737065 17.21515152 278.35689699 11.79449749 278.37166214 C9.6413507 278.38134682 7.48916759 278.41237228 5.33624554 278.44392776 C3.95669388 278.45046065 2.57713543 278.45571 1.19757366 278.45955276 C-0.67474934 278.47357132 -0.67474934 278.47357132 -2.58489704 278.48787308 C-6.42553194 278.09440406 -8.80115457 277.16777721 -12.06414509 275.13142776 C-14.17076908 271.97149178 -14.31545602 271.22942251 -14.32420731 267.62203026 C-14.33480569 266.22782095 -14.33480569 266.22782095 -14.34561819 264.80544579 C-14.3432031 263.78260267 -14.34078802 262.75975954 -14.33829975 261.70592117 C-14.34353643 260.6206608 -14.34877311 259.53540043 -14.35416847 258.41725338 C-14.36923127 254.76220835 -14.36987501 251.10730254 -14.37054157 247.45222855 C-14.37815879 244.83923988 -14.38658553 242.22625346 -14.39576435 239.61326981 C-14.41862729 232.50176892 -14.42653622 225.39029785 -14.4315908 218.2787652 C-14.43484607 213.83953055 -14.44136748 209.40030458 -14.44859219 204.96107483 C-14.46815916 192.67332424 -14.48456301 180.38558173 -14.48746872 168.09781456 C-14.48765629 167.31129314 -14.48784386 166.52477172 -14.48803711 165.71441632 C-14.48840337 164.11990603 -14.48876706 162.52539574 -14.48912822 160.93088545 C-14.48931104 160.13935445 -14.48949385 159.34782346 -14.4896822 158.53230667 C-14.48986275 157.7398112 -14.4900433 156.94731573 -14.49022932 156.13080524 C-14.49377207 143.28531051 -14.52080027 130.4399833 -14.55818009 117.59454669 C-14.59623852 104.41056389 -14.61562601 91.22666428 -14.61592823 78.04262531 C-14.61651333 70.63849904 -14.62503904 63.23457264 -14.6539259 55.83049774 C-14.68096286 48.86849844 -14.68236564 41.90690164 -14.66627026 34.94487 C-14.66444809 32.38621789 -14.67121506 29.82754348 -14.68708897 27.26893997 C-14.70740487 23.78245165 -14.69708141 20.29737027 -14.67887592 16.81090164 C-14.69207589 15.79251996 -14.70527586 14.77413828 -14.71887583 13.72489655 C-14.66332965 9.08462142 -14.59191976 6.84752119 -11.77572441 3.02646065 C-7.83877198 0.27505513 -4.73562932 0.00664905 0 0 Z " fill="#000000" transform="translate(14.0641450881958,92.86857223510742)"/>
<path d="M0 0 C1.20336754 -0.00810448 1.20336754 -0.00810448 2.43104553 -0.01637268 C5.07485187 -0.0288489 7.71756685 -0.01237686 10.36132812 0.00561523 C12.20308489 0.00546022 14.04484198 0.00397084 15.88659668 0.00120544 C19.74339244 -0.00017805 23.5998161 0.01237119 27.45654297 0.03515625 C32.39635729 0.06354073 37.33555345 0.0608029 42.27541351 0.04806614 C46.07758855 0.04110596 49.87962111 0.04890213 53.68177795 0.06132317 C55.50301059 0.06583437 57.32425854 0.06617736 59.14549255 0.06225777 C61.69236522 0.05934221 64.23839073 0.07586853 66.78515625 0.09765625 C67.53543594 0.0931546 68.28571564 0.08865295 69.05873108 0.08401489 C73.51945901 0.14731068 76.32786523 0.79064643 79.89257812 3.50170898 C81.92773438 5.70874023 81.92773438 5.70874023 83.95507812 8.31420898 C87.51225051 12.79470731 91.15043915 17.17456474 94.89257812 21.50170898 C99.21287488 26.51401307 103.44357863 31.58711829 107.61523438 36.72436523 C110.17461784 39.84567166 112.77847729 42.92624323 115.39257812 46.00170898 C118.74704939 49.94821379 122.06479642 53.9181297 125.33007812 57.93920898 C128.78531963 62.18563281 132.31955647 66.35467192 135.89257812 70.50170898 C140.20470762 75.50659352 144.43215112 80.56790967 148.59179688 85.70092773 C150.30435428 87.78565381 152.03263339 89.84733891 153.78710938 91.89624023 C154.28202881 92.47494873 154.77694824 93.05365723 155.28686523 93.64990234 C156.24675342 94.76932347 157.20963025 95.88619149 158.17602539 97 C164.09787747 103.91045342 165.33892688 108.03781995 165.3125 116.99584961 C165.32096954 118.05168747 165.32943909 119.10752533 165.33816528 120.19535828 C165.36155124 123.68301458 165.36255713 127.17023023 165.36132812 130.65795898 C165.36842794 133.0826434 165.37612667 135.50732614 165.38439941 137.93200684 C165.39784737 143.01274284 165.39941115 148.09332344 165.39355469 153.17407227 C165.38765385 159.68787996 165.41826567 166.20094355 165.45867157 172.71460724 C165.48450579 177.72117131 165.48742991 182.7275551 165.48377991 187.73417664 C165.48547468 190.13597995 165.49515137 192.53779127 165.51292419 194.93952942 C165.53503166 198.2960513 165.52545285 201.65105218 165.5078125 205.00756836 C165.52107574 206.00096725 165.53433899 206.99436615 165.54800415 208.01786804 C165.49121593 212.66269011 165.42302733 214.8037437 162.54162598 218.59509277 C158.22796719 221.6997901 154.78967776 221.68987397 149.58007812 221.75170898 C147.63681641 221.79038086 147.63681641 221.79038086 145.65429688 221.82983398 C141.58357524 221.47475546 139.2861245 220.75427945 135.89257812 218.50170898 C132.96676427 214.77617267 132.08676273 210.87953263 131.01757812 206.31420898 C127.47609046 192.22021891 120.37959669 180.37436926 107.89257812 172.50170898 C91.17439565 163.5990204 74.80258615 161.42038228 56.35351562 166.47045898 C41.80771535 171.16060809 31.35726702 179.62172287 24.20507812 193.06420898 C21.11390331 199.25077462 19.40814319 205.47034574 18.00976562 212.22436523 C16.68484414 216.11111042 15.03248564 217.90102571 11.89257812 220.50170898 C8.31944818 221.6927523 5.34704491 221.70699721 1.58007812 221.75170898 C-0.36318359 221.79038086 -0.36318359 221.79038086 -2.34570312 221.82983398 C-6.4741162 221.46972319 -8.72923089 220.90007834 -12.10742188 218.50170898 C-14.93220027 213.19763101 -15.53915561 208.96903258 -15.48164368 203.02487183 C-15.48561808 202.1975411 -15.48959249 201.37021038 -15.49368733 200.51780903 C-15.50327321 197.75949793 -15.49151487 195.0017045 -15.47973633 192.2434082 C-15.48216548 190.26036386 -15.48588599 188.27732075 -15.49079895 186.29428101 C-15.50019343 180.9184326 -15.49079521 175.54276672 -15.47746682 170.16693258 C-15.46614128 164.5398465 -15.47026061 158.91276926 -15.47221375 153.28567505 C-15.47309622 143.83861309 -15.46202472 134.39162296 -15.44360352 124.94458008 C-15.42242439 114.02057992 -15.41892891 103.09668487 -15.42516547 92.17266834 C-15.43085827 81.66319507 -15.42521525 71.15375885 -15.41399193 60.64429092 C-15.40934608 56.17151327 -15.40847202 51.69875826 -15.41057777 47.22597885 C-15.4124602 41.96137048 -15.40436022 36.69686925 -15.38851738 31.43228531 C-15.38427213 29.49931532 -15.38342559 27.56633447 -15.38620758 25.63336182 C-15.38942654 22.99698295 -15.3803548 20.36092476 -15.36811829 17.72457886 C-15.37189761 16.95794635 -15.37567693 16.19131384 -15.37957078 15.40145004 C-15.33469686 9.94409189 -14.74123579 6.261133 -10.98913574 2.2205658 C-7.29512433 0.01719761 -4.17759936 -0.05383179 0 0 Z M8.89257812 24.50170898 C6.80936224 27.72072107 6.6398687 30.3358304 6.63378906 34.12475586 C6.62748474 35.25272583 6.62118042 36.3806958 6.61468506 37.54284668 C6.61873352 38.75645874 6.62278198 39.9700708 6.62695312 41.22045898 C6.62503967 42.47048706 6.62312622 43.72051514 6.62115479 45.00842285 C6.61979377 47.65134536 6.62247929 50.29389794 6.63183594 52.93676758 C6.64323025 56.31955497 6.63666717 59.70202497 6.62469101 63.08480072 C6.6157148 66.31753144 6.62200469 69.55022412 6.62695312 72.78295898 C6.62290466 73.99657104 6.6188562 75.21018311 6.61468506 76.46057129 C6.62098938 77.58854126 6.6272937 78.71651123 6.63378906 79.87866211 C6.63538025 80.87031372 6.63697144 81.86196533 6.63861084 82.88366699 C6.9144586 85.72726556 7.19266833 87.20477297 8.89257812 89.50170898 C13.8217876 92.8177157 18.12420007 92.93220382 23.84790039 92.88989258 C24.72832001 92.89514954 25.60873962 92.90040649 26.51583862 92.90582275 C29.41373658 92.91898103 32.31108124 92.9103002 35.20898438 92.90014648 C37.22867437 92.90216824 39.24836365 92.90508052 41.26805115 92.90884399 C45.49542204 92.91326154 49.72260246 92.90685387 53.94995117 92.89282227 C59.36612618 92.87571984 64.78185554 92.88558198 70.19801426 92.90353966 C74.36646377 92.91438346 78.53480772 92.91092858 82.70326042 92.90315628 C84.70033763 92.9011565 86.69742445 92.90360575 88.69449043 92.91059494 C91.48546856 92.91822035 94.2757259 92.90659033 97.06665039 92.88989258 C97.89016495 92.89596527 98.7136795 92.90203796 99.56214905 92.90829468 C105.20200622 92.84583779 108.60621307 91.78807404 112.70507812 87.68920898 C114.42675865 84.51769224 114.57053639 83.09488779 113.89257812 79.50170898 C111.88559254 76.22959387 109.39531455 73.40349523 106.89257812 70.50170898 C106.0254563 69.4754086 105.15963374 68.44800945 104.29492188 67.41967773 C102.42010453 65.19385348 100.53760784 62.9748385 98.65039062 60.75952148 C95.44914409 56.99191758 92.33253519 53.15728344 89.21289062 49.32202148 C86.1364074 45.58259238 82.99734883 41.89790036 79.84887695 38.21899414 C76.58099426 34.38019889 73.52610755 30.43138886 70.62304688 26.30639648 C66.96348019 22.48987321 63.06268013 21.32168632 57.90039062 21.11352539 C55.93954912 21.09382382 53.97848246 21.09136532 52.01757812 21.10327148 C50.45354248 21.09896622 50.45354248 21.09896622 48.85791016 21.09457397 C46.65917414 21.09253765 44.46041984 21.09803722 42.26171875 21.1105957 C38.90388324 21.12665492 35.54725137 21.11073172 32.18945312 21.09155273 C30.04882548 21.09353524 27.90819858 21.09737907 25.76757812 21.10327148 C24.76742676 21.09719879 23.76727539 21.0911261 22.73681641 21.08486938 C17.4305646 21.138184 13.38097229 21.33527596 8.89257812 24.50170898 Z " fill="#000000" transform="translate(347.107421875,149.498291015625)"/>
<path d="M0 0 C1.08667969 0.61294922 1.08667969 0.61294922 2.1953125 1.23828125 C4.18643996 2.42487566 6.09462984 3.68122694 8 5 C8.86625 5.5775 9.7325 6.155 10.625 6.75 C18.56713425 14.27412719 24.01972154 25.44953575 24.34375 36.35961914 C24.50796502 49.57764533 21.95511698 59.6179875 13.1015625 69.84765625 C3.45913463 79.72307959 -7.31137584 83.29147908 -21 84 C-32.90633463 83.56546224 -43.45919361 78.35198977 -52.03125 70.19921875 C-60.13648432 61.1451574 -64 50.06895127 -64 38 C-62.81946584 24.81121991 -57.72201341 13.69753402 -47.64453125 4.95703125 C-34.34634653 -4.95846738 -14.97580145 -8.73117481 0 0 Z M-29 31 C-31.52861959 34.37149279 -32.2409869 36.93462758 -32 41.0625 C-31.12419282 46.09598519 -28.12623606 48.38699333 -24.1875 51.375 C-20.66996992 52.38000859 -17.44242163 52.06078599 -14 51 C-10.38510847 48.17095445 -8.09562983 45.49208229 -7 41 C-7.11542104 35.57521124 -9.22049894 32.77950106 -13 29 C-19.14816584 25.77953218 -23.50010325 27.31815644 -29 31 Z " fill="#000000" transform="translate(442,335)"/>
<path d="M0 0 C9.4455879 6.7420207 16.04760258 15.9541762 18.625 27.3125 C20.61825682 39.61702768 19.00753023 51.34960887 12.1015625 61.9296875 C6.33725076 69.60704593 0.19631657 74.67611912 -8.6875 78.3125 C-9.63625 78.725 -10.585 79.1375 -11.5625 79.5625 C-25.5251866 82.91354478 -37.73277862 80.65089159 -49.9375 73.375 C-59.54556901 66.16894825 -65.48216113 56.95007725 -68.4375 45.375 C-69.6928781 29.99661827 -66.79756191 18.45007739 -57.0625 6.28125 C-42.31863696 -9.88029218 -17.89130691 -10.88640539 0 0 Z M-35.625 30 C-37.34602029 33.74575005 -37.44240529 37.27934858 -36.6875 41.3125 C-35.00106024 44.47792066 -32.67722868 46.6101119 -29.75 48.6875 C-25.34540333 50.02222626 -22.58298236 49.7865789 -18.5 47.625 C-14.46827172 44.31002342 -12.91292391 42.08368784 -12.25 36.875 C-12.77870375 32.5698409 -13.86092768 30.58537321 -16.6875 27.3125 C-24.09898678 22.68032076 -29.40699667 24.58431968 -35.625 30 Z " fill="#000000" transform="translate(129.6875,337.6875)"/>
</svg>
