<?xml version="1.0" encoding="UTF-8"?>
<svg version="1.1" xmlns="http://www.w3.org/2000/svg" width="512" height="512">
<path d="M0 0 C2.28754623 -0.00542592 4.57508896 -0.01255121 6.86262512 -0.02124023 C13.05275243 -0.03942145 19.24261201 -0.03242712 25.43274379 -0.01972389 C31.9240468 -0.0095681 38.41532752 -0.01899685 44.90663147 -0.02526855 C56.50435161 -0.03300305 68.10195005 -0.02060281 79.69965101 -0.00023121 C90.1946842 0.01763354 100.68954033 0.01453659 111.18457031 -0.00390625 C123.39834334 -0.02535965 135.61199041 -0.03325496 147.82578188 -0.0214572 C154.28149542 -0.01523623 160.73708727 -0.01434812 167.19279289 -0.02760315 C173.2643777 -0.03919948 179.33562982 -0.03106655 185.40717888 -0.00802612 C187.62908375 -0.00275903 189.85101685 -0.00421833 192.07291031 -0.01307678 C210.1378095 -0.07843228 222.68491946 1.64718226 236.49243164 14.39257812 C246.1002498 24.50607093 249.83591592 37.06881566 249.65649414 50.70898438 C249.6522493 51.95505714 249.6522493 51.95505714 249.6479187 53.2263031 C249.63684455 55.84438317 249.61176524 58.46210383 249.58618164 61.08007812 C249.57613529 62.86978668 249.56701236 64.65950067 249.55883789 66.44921875 C249.53694729 70.80547417 249.50250797 75.1614655 249.46118164 79.51757812 C250.20176315 79.50647507 250.94234467 79.49537201 251.70536804 79.4839325 C258.69383843 79.38363555 265.68220087 79.30756506 272.67120647 79.25851727 C276.26419024 79.23245268 279.856578 79.19711484 283.44921875 79.14038086 C286.9181635 79.08594477 290.38653603 79.05613397 293.85587502 79.04319191 C295.81969215 79.02949364 297.78327989 78.99047794 299.74674988 78.95109558 C309.68229172 78.947971 309.68229172 78.947971 312.77294922 81.8605957 C314.86948567 85.16017721 315.26010831 86.68273011 314.46118164 90.51757812 C312.41438676 93.45397135 310.78254138 95.25144437 307.18520641 95.97598004 C304.23866344 96.15832508 301.32966548 96.17205745 298.37756348 96.1366272 C297.24567518 96.14286618 296.11378688 96.14910516 294.94759893 96.15553319 C291.14643456 96.17048126 287.34629299 96.14978456 283.54516602 96.12939453 C280.82349531 96.13014236 278.10186072 96.13846788 275.38020325 96.14656067 C269.51541677 96.16017562 263.65086389 96.15587411 257.78608704 96.13972855 C249.301196 96.11665859 240.816539 96.1239702 232.33164018 96.13925974 C218.5582317 96.16353241 204.78489809 96.16773645 191.01147461 96.15722656 C190.18721338 96.15660274 189.36295215 96.15597891 188.5137133 96.15533619 C186.84546632 96.15406487 185.17721935 96.15279064 183.50897238 96.15151348 C182.68187758 96.1508811 181.85478279 96.15024871 181.00262451 96.14959717 C180.17480076 96.14895902 179.34697702 96.14832088 178.4940677 96.14766339 C169.29967511 96.14085757 160.10528358 96.13886643 150.91088867 96.13867188 C150.08763153 96.13864904 149.26437439 96.13862621 148.41617006 96.13860269 C134.69423299 96.1386719 120.97232438 96.15069622 107.25040102 96.16963136 C98.7857351 96.18060014 90.32121806 96.17975685 81.8565594 96.16369162 C76.05838441 96.15323291 70.26026937 96.15299083 64.46209037 96.16080977 C61.11558134 96.1649012 57.76941877 96.16229549 54.42290688 96.14987755 C50.79671324 96.13707006 47.17099158 96.14250411 43.5447998 96.15249634 C42.48498193 96.14423816 41.42516406 96.13597999 40.3332305 96.12747157 C33.34864581 96.0828226 33.34864581 96.0828226 27.46118164 99.51757812 C24.80204406 103.01477235 24.08416088 105.54794367 24.06245422 109.90229797 C24.043647 111.50288307 24.043647 111.50288307 24.02445984 113.13580322 C24.02661247 114.87612823 24.02661247 114.87612823 24.02880859 116.65161133 C24.01861694 117.88129135 24.00842529 119.11097137 23.9979248 120.37791443 C23.97293814 123.7412746 23.96107452 127.10419829 23.95507073 130.46761346 C23.94567927 133.98573501 23.91947529 137.50373066 23.89506531 141.02177429 C23.85141775 147.67978462 23.82286014 154.33777049 23.79974192 160.99588031 C23.77268085 168.57754481 23.72876994 176.15908255 23.6834532 183.7406565 C23.59063194 199.33289852 23.51893975 214.92516441 23.46118164 230.51757812 C24.51194885 230.50869568 25.56271606 230.49981323 26.64532471 230.49066162 C36.5896392 230.40927056 46.53388533 230.34946697 56.4784584 230.31032944 C61.59002916 230.28953139 66.70132916 230.26135722 71.81274414 230.21582031 C76.75352355 230.17208336 81.69404394 230.14838262 86.63500214 230.13806915 C88.51190005 230.13072746 90.38878517 230.11639198 92.26557159 230.0946579 C117.556343 229.81365641 117.556343 229.81365641 126.96118164 238.76757812 C130.92344636 242.64729566 133.65992168 246.27088486 135.46118164 251.51757812 C135.68290039 252.15308594 135.90461914 252.78859375 136.13305664 253.44335938 C139.02568904 263.19622132 137.86742666 272.94914925 133.20727539 281.93554688 C127.8012778 290.72949936 121.20444312 294.8012698 111.41372681 297.69494629 C103.72024967 299.51551526 95.66650826 299.00162682 87.81665039 298.90820312 C85.95193596 298.90072585 84.08721357 298.89503996 82.2224884 298.89105225 C77.35787562 298.87591278 72.49375447 298.8367344 67.6293335 298.79223633 C62.64822028 298.7510288 57.66702622 298.73298726 52.68579102 298.71289062 C42.94404071 298.67022665 33.20265235 298.60212028 23.46118164 298.51757812 C23.54890619 300.41424339 23.65709465 302.30996805 23.77368164 304.20507812 C23.83168945 305.26082031 23.88969727 306.3165625 23.94946289 307.40429688 C24.68057767 311.85237684 26.02079059 314.47202918 29.69256783 317.13729346 C32.89919671 318.73594931 34.9588544 318.89345917 38.52853394 318.89510155 C39.75459414 318.90292479 40.98065434 318.91074803 42.24386787 318.91880834 C43.60130062 318.91232242 44.95873204 318.90555246 46.31616211 318.89852905 C47.76059765 318.90198572 49.20503055 318.90675035 50.64945793 318.91271079 C54.61913065 318.92524927 58.58858736 318.91903752 62.55826092 318.90975213 C66.83916891 318.90297362 71.12003937 318.91343691 75.40093994 318.92169189 C83.78740837 318.93504423 92.17379632 318.93214481 100.56026793 318.92345397 C107.37504456 318.91668374 114.18979861 318.91575785 121.00457764 318.91902542 C121.97383301 318.91948512 122.94308838 318.91994482 123.94171512 318.92041845 C125.9106288 318.92137761 127.87954248 318.92235025 129.84845614 318.92333622 C148.3187131 318.93189451 166.78892542 318.9220491 185.25917506 318.90593512 C201.11364232 318.89253155 216.96804369 318.89485952 232.82250977 318.90869141 C251.22586973 318.92473947 269.62919055 318.9310705 288.03255653 318.92185462 C289.99429956 318.92089895 291.9560426 318.91995584 293.91778564 318.91902542 C294.88304574 318.91856259 295.84830583 318.91809977 296.84281623 318.91762292 C303.65081526 318.9150307 310.45878949 318.919409 317.26678467 318.92646408 C325.56144399 318.93487068 333.85601813 318.93261665 342.15066767 318.91662185 C346.3841766 318.9087278 350.6175434 318.90566679 354.85105133 318.91556931 C358.72476512 318.92449332 362.59820472 318.91962145 366.47189355 318.90363665 C367.87491657 318.90027908 369.27796265 318.90200478 370.68097091 318.90926401 C372.58524117 318.91836276 374.48957611 318.9072522 376.39382935 318.89510155 C377.45243731 318.89461449 378.51104527 318.89412743 379.60173225 318.89362562 C383.88152916 318.33078758 386.52120604 316.65438259 389.24987221 313.3543396 C390.85446921 309.59653929 390.87642065 306.14405768 390.84213257 302.12939453 C390.84681254 301.28743845 390.85149251 300.44548237 390.8563143 299.57801247 C390.86827535 296.75822804 390.85880273 293.93892862 390.84936523 291.11914062 C390.85343044 289.09698198 390.85877203 287.07482555 390.86529541 285.05267334 C390.87898084 279.56101799 390.87366524 274.06953157 390.86415815 268.57787323 C390.85656795 262.83332358 390.86360539 257.08878849 390.86831665 251.34423828 C390.87377606 241.69691366 390.8665777 232.04965792 390.85229492 222.40234375 C390.83596809 211.24546349 390.84125646 200.08874769 390.85777414 188.93187141 C390.8713837 179.35638584 390.87331125 169.78094981 390.86545813 160.20545769 C390.86077871 154.4848651 390.86016419 148.76434984 390.8700676 143.04376221 C390.87872723 137.66587873 390.87273358 132.28820751 390.85538483 126.91034698 C390.85141464 124.93545128 390.8525631 122.96053774 390.85917282 120.98564911 C390.86735729 118.29211134 390.85710422 115.59925589 390.84213257 112.90576172 C390.84882473 112.12220118 390.8555169 111.33864063 390.86241186 110.53133583 C390.81356981 106.00844356 390.23555952 103.12542416 387.46118164 99.51757812 C382.97646501 95.63489028 378.1194404 96.09291832 372.48852539 96.11132812 C371.52846085 96.10049194 370.5683963 96.08965576 369.57923889 96.07849121 C365.48191126 96.03268612 361.38464726 96.02113673 357.28710938 96.00634766 C354.29151811 95.99066518 351.29645756 95.95767108 348.30102539 95.92382812 C347.37490952 95.92684937 346.44879364 95.92987061 345.49461365 95.9329834 C339.1241666 95.85847308 339.1241666 95.85847308 335.90478516 94.203125 C333.55499664 91.4595194 333.5221601 89.05432868 333.46118164 85.51757812 C334.80680563 82.57002081 335.54672708 80.9748054 338.46118164 79.51757812 C339.91919521 79.40796116 341.38197633 79.35855889 342.84399414 79.34057617 C343.7525415 79.32774094 344.66108887 79.3149057 345.59716797 79.30168152 C346.58354248 79.29429459 347.56991699 79.28690765 348.58618164 79.27929688 C350.11118286 79.26718925 350.11118286 79.26718925 351.66699219 79.25483704 C353.82574758 79.24098429 355.984525 79.23026749 358.14331055 79.22241211 C361.42027503 79.20529184 364.6962062 79.16142707 367.97290039 79.1171875 C370.07315341 79.10705234 372.17341499 79.09853882 374.27368164 79.09179688 C375.72895264 79.06553474 375.72895264 79.06553474 377.21362305 79.03874207 C385.00095397 79.06314047 391.59531033 80.84300251 398.04711914 85.30664062 C398.63750977 85.9125 399.22790039 86.51835938 399.83618164 87.14257812 C400.44204102 87.73296875 401.04790039 88.32335937 401.67211914 88.93164062 C408.77553349 99.19902119 408.03142717 109.96731252 407.97875977 121.95507812 C407.98418569 124.02897634 407.99131098 126.1028707 408 128.17675781 C408.01818023 133.78832516 408.01118764 139.39959716 407.99848366 145.01116943 C407.98832854 150.89482394 407.99775631 156.77845383 408.00402832 162.66210938 C408.0112974 172.54106162 408.00173637 182.41989408 407.98266602 192.29882812 C407.96089879 203.70625914 407.96795068 215.11340415 407.98997164 226.52082825 C408.00814665 236.33004701 408.01067366 246.13917987 408.00021696 255.94841003 C407.99399362 261.80045253 407.99311456 267.65236076 408.00636292 273.50439453 C408.0179513 279.00717501 408.00984088 284.50958814 407.98678589 290.0123291 C407.98151479 292.02705273 407.98298506 294.04180748 407.99183655 296.05651855 C408.07473743 316.84907608 408.07473743 316.84907608 401.67211914 326.10351562 C401.06625977 326.69390625 400.46040039 327.28429687 399.83618164 327.89257812 C399.24579102 328.4984375 398.65540039 329.10429687 398.04711914 329.72851562 C389.77502132 335.45150777 381.67186719 336.08608069 371.84155273 335.97167969 C370.50019362 335.97054894 369.15883205 335.9711895 367.81747437 335.97344971 C364.20638973 335.97458895 360.59584563 335.95120961 356.98488569 335.92315388 C353.1999641 335.89800689 349.41502765 335.89578782 345.6300354 335.89105225 C338.47622461 335.87866126 331.32266077 335.84589276 324.16895831 335.80565429 C316.01897692 335.76081518 307.86898322 335.73891915 299.71890903 335.71887255 C282.96618909 335.6771562 266.21371697 335.60688043 249.46118164 335.51757812 C249.46394702 336.2074242 249.4667124 336.89727028 249.46956158 337.60802078 C249.53597336 354.43613632 249.58553587 371.26421005 249.61661816 388.0924263 C249.63205095 396.23061089 249.65307139 404.36870771 249.6875 412.50683594 C249.71751274 419.60456936 249.73678268 426.70223917 249.74344712 433.80003428 C249.74733939 437.55416033 249.75641078 441.3081045 249.77837181 445.06217194 C249.79892524 448.60474472 249.80497795 452.14706288 249.80050468 455.68968964 C249.80170733 457.59109264 249.81774986 459.49246872 249.83444214 461.39379883 C249.78317818 475.82357083 246.20268165 488.68790951 236.08618164 499.39257812 C221.83992773 512.37530619 207.20602291 513.10856716 188.79296875 513.03515625 C186.50365251 513.04058315 184.21433976 513.04770898 181.92503357 513.05639648 C175.73503252 513.07456399 169.54529946 513.06758963 163.35529399 513.05488014 C156.86352895 513.04471965 150.37178613 513.05415416 143.88002014 513.0604248 C132.28438641 513.06815662 120.68887447 513.05576434 109.09325994 513.03538746 C98.59792052 513.01751459 88.10275811 513.02062723 77.60742188 513.0390625 C65.39218628 513.06050905 53.17707659 513.06841547 40.96182257 513.05661345 C34.50559687 513.05039049 28.04949286 513.04951012 21.59327507 513.0627594 C15.52332154 513.07434708 9.45370104 513.06623849 3.38378334 513.04318237 C1.16145759 513.03791115 -1.06089638 513.03938172 -3.28321075 513.04823303 C-24.73670339 513.1257777 -24.73670339 513.1257777 -33.53881836 508.51757812 C-34.53397461 508.03675781 -35.52913086 507.5559375 -36.55444336 507.06054688 C-47.82171399 500.225332 -55.58220775 491.15316171 -59.1128006 478.20945644 C-60.84359832 471.07338295 -60.96284593 464.21075055 -60.93322754 456.89674377 C-60.93812666 455.45451524 -60.94432115 454.01229064 -60.95168543 452.57007259 C-60.96797668 448.63903017 -60.9657894 444.70818971 -60.96031046 440.77712548 C-60.95762707 436.52564269 -60.97219584 432.27421215 -60.98440552 428.02275085 C-61.00540093 419.70877419 -61.01000398 411.39486735 -61.00821763 403.0808673 C-61.00690798 396.32537141 -61.01072448 389.56989724 -61.0181427 382.81440544 C-61.02024194 380.86573678 -61.02233954 378.91706813 -61.02443552 376.96839947 C-61.02547905 375.99843577 -61.02652258 375.02847208 -61.02759773 374.02911555 C-61.0464735 355.71143928 -61.04545698 337.39380311 -61.0386284 319.07612114 C-61.03304472 302.31249608 -61.05391819 285.54902344 -61.08698887 268.78543402 C-61.12069758 251.56475784 -61.13589841 234.34415477 -61.13127184 217.12344497 C-61.12902561 207.45811567 -61.13429396 197.79292754 -61.15916443 188.12762642 C-61.18014016 179.90629408 -61.18380587 171.68518051 -61.16486484 163.4638393 C-61.15568708 159.26866288 -61.15462638 155.07389481 -61.17522049 150.87874985 C-61.19385585 147.04031513 -61.18951201 143.20262535 -61.16667467 139.36421966 C-61.16247022 137.97418799 -61.16675074 136.58410002 -61.18027061 135.19412775 C-61.2862672 123.50271468 -61.2862672 123.50271468 -58.18747711 120.19839382 C-54.89248003 118.10741747 -53.36716511 117.72000589 -49.53881836 118.51757812 C-46.94648669 120.16364291 -45.96668224 120.89108162 -44.53881836 123.51757812 C-43.77411272 128.07257929 -43.87426048 132.62700701 -43.91976929 137.23175049 C-43.91560612 138.66096509 -43.90924108 140.09017469 -43.90086329 141.51937079 C-43.88416328 145.44726667 -43.89855509 149.37453123 -43.9179244 153.30239224 C-43.93334548 157.53839819 -43.91990579 161.77432196 -43.90983582 166.0103302 C-43.89621258 173.3516603 -43.90053139 180.69280385 -43.91666794 188.03412628 C-43.93973108 198.65824463 -43.93242884 209.28217598 -43.91713674 219.90630051 C-43.89285557 237.15581133 -43.88866276 254.40526236 -43.89916992 271.65478516 C-43.89979375 272.68734018 -43.90041757 273.7198952 -43.9010603 274.78373978 C-43.90233158 276.87347326 -43.90360582 278.96320675 -43.904883 281.05294023 C-43.90551539 282.08893614 -43.90614777 283.12493205 -43.90679932 284.19232178 C-43.90743746 285.22918877 -43.90807561 286.26605577 -43.90873309 287.33434297 C-43.91553474 298.84252389 -43.91752998 310.35070395 -43.91772461 321.85888672 C-43.91775886 323.40401455 -43.91775886 323.40401455 -43.9177938 324.98035708 C-43.91772454 342.16014857 -43.90568876 359.33991736 -43.88676512 376.5196979 C-43.87580467 387.11557865 -43.87662648 397.71134044 -43.89270486 408.30721536 C-43.9031773 415.56967486 -43.90339616 422.83208655 -43.89558671 430.09454927 C-43.89150211 434.28400712 -43.89241807 438.47331278 -43.90651894 442.66275215 C-43.91938096 446.50088597 -43.91840879 450.33876283 -43.90664645 454.17689785 C-43.90485029 455.56250144 -43.90810402 456.94812313 -43.91702883 458.33369914 C-43.98395345 469.3792549 -42.81540187 477.80265514 -35.61303711 486.43945312 C-25.06732956 497.00502076 -11.71436909 496.77102325 2.28833008 496.78863525 C4.25219768 496.78474765 6.21606487 496.78065137 8.17993164 496.77636719 C10.27205527 496.77908067 12.36417795 496.7826436 14.45629883 496.7869873 C20.11325442 496.79607107 25.7701367 496.79258363 31.42709351 496.78622913 C37.3609842 496.78114833 43.29486882 496.78586636 49.22875977 496.78900146 C59.1916618 496.79263505 69.15453413 496.78785795 79.11743164 496.77832031 C90.61851634 496.76743695 102.11953012 496.77096296 113.6206131 496.78197312 C123.51392471 496.7910633 133.40721504 496.79232281 143.30052948 496.78709579 C149.20117861 496.78398561 155.10179445 496.78354053 161.00244141 496.79016876 C166.55109968 496.79596678 172.09966694 496.79190047 177.64831543 496.78038025 C179.67875009 496.77774678 181.70919248 496.77847618 183.73962402 496.78290558 C204.33300626 497.19926577 204.33300626 497.19926577 222.46118164 488.51757812 C230.5234613 480.44011526 232.77551772 472.03898833 232.89790344 460.83052063 C232.89646835 459.60052841 232.89503326 458.37053619 232.89355469 457.10327148 C232.90374634 455.78522522 232.91393799 454.46717896 232.92443848 453.10919189 C232.95185423 449.52097388 232.9612718 445.93291432 232.96729255 442.34460521 C232.97671671 438.58494417 233.00292315 434.82539963 233.02729797 431.06581116 C233.07085601 423.95814952 233.09946847 416.85051063 233.12262136 409.74275643 C233.14973061 401.64589914 233.19363842 393.54915967 233.23891008 385.45238674 C233.33160303 368.8075104 233.40335376 352.1626129 233.46118164 335.51757812 C230.16118164 335.51757812 226.86118164 335.51757812 223.46118164 335.51757812 C223.4722847 336.4335527 223.48338776 337.34952728 223.49482727 338.29325867 C223.59505716 346.92999593 223.67116079 355.56653757 223.7202425 364.20372295 C223.74632455 368.64412454 223.78169646 373.08404515 223.83837891 377.52416992 C223.89274943 381.81006909 223.92261266 386.09550596 223.93556786 390.3817234 C223.94479879 392.01603281 223.96282519 393.65031722 223.98983192 395.28442955 C224.02619179 397.57583435 224.03112447 399.86533505 224.02880859 402.15698242 C224.03991165 403.46048141 224.05101471 404.76398041 224.06245422 406.10697937 C223.3057134 410.39944068 221.84869667 411.86197201 218.46118164 414.51757812 C215.46118164 415.14257812 215.46118164 415.14257812 212.46118164 414.51757812 C209.07366661 411.86197201 207.61664988 410.39944068 206.85990906 406.10697937 C206.87101212 404.80348038 206.88211517 403.49998138 206.89355469 402.15698242 C206.89282455 401.43448807 206.89209442 400.71199371 206.89134216 399.96760559 C206.89481163 397.59155865 206.93363751 395.21749908 206.97290039 392.84179688 C206.98223092 391.18985566 206.9893459 389.53790057 206.99433899 387.88594055 C207.01339023 383.54712433 207.06247398 379.20915077 207.11785889 374.8706665 C207.16909236 370.43993529 207.19186172 366.00906733 207.21704102 361.578125 C207.27059536 352.8908902 207.35588438 344.20433911 207.46118164 335.51757812 C206.55303522 335.5212653 205.6448888 335.52495247 204.70922279 335.52875137 C182.59096794 335.61716813 160.47274364 335.68331975 138.35434914 335.72482681 C127.65796173 335.7454339 116.96169244 335.77351912 106.26538086 335.81933594 C96.94023062 335.85926038 87.61516594 335.8850244 78.28993261 335.8939321 C73.35429945 335.89913734 68.41891104 335.91133296 63.48335648 335.94049835 C58.83271877 335.96775606 54.1824254 335.97600226 49.53171539 335.97000885 C47.8298111 335.97110447 46.12789466 335.97899649 44.42605972 335.99440002 C34.24780895 336.08196451 25.52816308 335.71497616 16.87524414 329.72851562 C16.28485352 329.12265625 15.69446289 328.51679688 15.08618164 327.89257812 C14.48032227 327.3021875 13.87446289 326.71179688 13.25024414 326.10351562 C6.14682979 315.83613506 6.89093611 305.06784373 6.94360352 293.08007812 C6.9381776 291.00617991 6.9310523 288.93228555 6.92236328 286.85839844 C6.90418305 281.24683109 6.91117565 275.63555909 6.92387962 270.02398682 C6.93403474 264.14033231 6.92460697 258.25670242 6.91833496 252.37304688 C6.91106588 242.49409463 6.92062691 232.61526217 6.93969727 222.73632812 C6.96146449 211.32889711 6.9544126 199.9217521 6.93239164 188.514328 C6.91421663 178.70510924 6.91168962 168.89597638 6.92214632 159.08674622 C6.92836966 153.23470372 6.92924872 147.38279549 6.91600037 141.53076172 C6.90441198 136.02798124 6.91252241 130.52556811 6.93557739 125.02282715 C6.9408485 123.00810352 6.93937823 120.99334877 6.93052673 118.9786377 C6.84762585 98.18608017 6.84762585 98.18608017 13.25024414 88.93164062 C13.85610352 88.34125 14.46196289 87.75085938 15.08618164 87.14257812 C15.67657227 86.53671875 16.26696289 85.93085937 16.87524414 85.30664062 C26.27839257 78.80113914 35.9532883 78.96406803 46.9362793 79.06347656 C48.69142633 79.06460646 50.44657525 79.06396841 52.20172119 79.06170654 C56.94081522 79.060564 61.6795001 79.08399847 66.41849947 79.11200237 C71.38057128 79.13709304 76.34265359 79.13936406 81.30477905 79.144104 C90.68976732 79.15651131 100.07456808 79.18930245 109.45947397 79.22950196 C120.14871419 79.27428968 130.8379636 79.2962243 141.52727437 79.3162837 C163.50534791 79.35803712 185.48325294 79.42834538 207.46118164 79.51757812 C207.44178461 74.72955454 207.39014454 69.94337502 207.30859375 65.15600586 C207.28539697 63.52752735 207.27101405 61.89889847 207.265625 60.27026367 C207.25634672 57.92856971 207.21538909 55.58924605 207.16821289 53.24804688 C207.17411186 52.15570992 207.17411186 52.15570992 207.18013 51.04130554 C207.16799687 48.72991894 207.16799687 48.72991894 206.46118164 45.51757812 C203.49709831 43.11264049 201.20348976 42.13889276 197.40527344 42.17700195 C196.26465706 42.17734184 196.26465706 42.17734184 195.10099792 42.1776886 C194.29560074 42.19317245 193.49020355 42.20865631 192.66040039 42.22460938 C191.40583794 42.23097664 191.40583794 42.23097664 190.12593079 42.23747253 C187.46651399 42.25420448 184.80786764 42.29184586 182.14868164 42.33007812 C180.34074991 42.34513208 178.53280625 42.35881925 176.72485352 42.37109375 C172.30333475 42.40408997 167.88238862 42.45583385 163.46118164 42.51757812 C163.14665039 43.54238281 162.83211914 44.5671875 162.50805664 45.62304688 C162.07633605 46.98390526 161.6440123 48.3445724 161.21118164 49.70507812 C161.0062207 50.37861328 160.80125977 51.05214844 160.59008789 51.74609375 C159.01781303 56.62967475 157.20361047 60.84991152 152.62458611 63.63440895 C150.17793253 64.63320925 148.40577922 64.77415083 145.76858521 64.78500366 C144.82937225 64.79353363 143.8901593 64.8020636 142.92248535 64.81085205 C141.38727234 64.80949249 141.38727234 64.80949249 139.82104492 64.80810547 C138.19602554 64.8181813 138.19602554 64.8181813 136.53817749 64.82846069 C132.95256987 64.84747744 129.36714907 64.85136674 125.78149414 64.85351562 C123.29051638 64.85994087 120.79953939 64.86666902 118.30856323 64.87368774 C113.08484141 64.88566963 107.86118577 64.88936761 102.63745117 64.88818359 C97.27339827 64.88711517 91.90963324 64.9012029 86.5456543 64.92919922 C80.07006969 64.96251672 73.59474391 64.97629565 67.11907578 64.97496414 C64.65111707 64.97732501 62.18315575 64.98617572 59.71524429 65.00162888 C56.26322962 65.0212203 52.81213688 65.01547693 49.36010742 65.00341797 C48.34068054 65.01465698 47.32125366 65.025896 46.27093506 65.03747559 C40.35629807 64.98496184 36.97091343 64.45276416 32.46118164 60.51757812 C31.10571289 58.47460938 31.10571289 58.47460938 30.27368164 56.33007812 C29.85022461 55.28787109 29.85022461 55.28787109 29.41821289 54.22460938 C28.04494293 50.34021719 26.74966284 46.43080225 25.46118164 42.51757812 C20.14098142 42.44327897 14.82108495 42.38890566 9.50048828 42.3527832 C7.69151547 42.33772058 5.88257904 42.31726636 4.07373047 42.29125977 C1.46971649 42.25476493 -1.13381356 42.23782656 -3.73803711 42.22460938 C-4.5434343 42.20912552 -5.34883148 42.19364166 -6.17863464 42.1776886 C-6.93904556 42.17746201 -7.69945648 42.17723541 -8.48291016 42.17700195 C-9.14687302 42.17034012 -9.81083588 42.16367828 -10.49491882 42.15681458 C-13.47626257 42.68304404 -15.15893341 43.63079919 -17.53881836 45.51757812 C-18.29425565 48.70258881 -18.29425565 48.70258881 -18.16802406 52.46887207 C-18.17529127 53.18392851 -18.18255847 53.89898495 -18.19004589 54.63570976 C-18.20840784 57.05063382 -18.1908904 59.46399174 -18.17373657 61.87890625 C-18.17949339 63.6200314 -18.18743154 65.36115049 -18.19737279 67.10225677 C-18.21832993 71.90131505 -18.2078909 76.69987899 -18.1924417 81.49893951 C-18.18116822 86.66876144 -18.19857094 91.838496 -18.21234131 97.00830078 C-18.23462117 107.14168072 -18.22975142 117.27487591 -18.2152781 127.40826321 C-18.2040045 135.64092467 -18.20244681 143.87353421 -18.20789719 152.10620117 C-18.20866335 153.27613098 -18.20942952 154.44606078 -18.2102189 155.651443 C-18.21181746 158.02783523 -18.21343853 160.40422743 -18.21508186 162.78061962 C-18.22935327 185.08504938 -18.2129248 207.38937654 -18.18608002 229.69378948 C-18.16374001 248.84864544 -18.16761975 268.00334991 -18.19067383 287.15820312 C-18.21740725 309.380633 -18.22797984 331.60297286 -18.21261251 353.82541656 C-18.2110197 356.19326272 -18.20944784 358.56110889 -18.20789719 360.92895508 C-18.20712581 362.09410251 -18.20635443 363.25924994 -18.20555968 364.45970488 C-18.2012353 372.68629326 -18.2085451 380.91282473 -18.22029495 389.1394043 C-18.23429121 399.15943086 -18.23058066 409.17926148 -18.20389123 419.19926548 C-18.19071428 424.31559094 -18.18566646 429.43158926 -18.20213699 434.5479126 C-18.21696959 439.22604899 -18.20895983 443.90355313 -18.18224923 448.58163166 C-18.17663569 450.27942431 -18.17956851 451.97726971 -18.19162817 453.6750288 C-18.20670612 455.97288692 -18.19137627 458.26854362 -18.16802406 460.56628418 C-18.1672123 461.84545464 -18.16640054 463.12462509 -18.16556418 464.44255829 C-17.84126885 467.67015486 -17.84126885 467.67015486 -15.24595487 469.42843878 C-11.45853138 470.95220085 -7.86503828 470.93153541 -3.84692383 470.89852905 C-2.97229933 470.90320902 -2.09767483 470.907889 -1.19654655 470.91271079 C1.73378798 470.92467554 4.66365614 470.9151977 7.59399414 470.90576172 C9.69496941 470.90982676 11.79594255 470.91516825 13.89691162 470.92169189 C19.60343406 470.9353793 25.30979396 470.9300609 31.01631927 470.92055464 C36.98508649 470.91296546 42.95383967 470.92000159 48.92260742 470.92471313 C58.94655865 470.93017284 68.9704436 470.9229734 78.99438477 470.90869141 C90.58751551 470.89236452 102.18048798 470.89765287 113.77361488 470.91417062 C123.72276986 470.92777933 133.67187716 470.92970815 143.62103844 470.92185462 C149.56519541 470.91717473 155.50927797 470.91656197 161.45343018 470.92646408 C167.04142933 470.93512246 172.62922418 470.92913233 178.21720123 470.91178131 C180.26949982 470.90781045 182.32181557 470.90896072 184.37410736 470.91556931 C187.17273368 470.92375111 189.97070281 470.91350382 192.76928711 470.89852905 C193.58397524 470.90522122 194.39866337 470.91191338 195.23803902 470.91880834 C199.78421253 470.87153339 202.91125631 470.47238734 206.46118164 467.51757812 C207.1628829 464.51253472 207.1628829 464.51253472 206.99243164 461.05664062 C206.99887695 459.78046875 207.00532227 458.50429688 207.01196289 457.18945312 C206.99086717 455.1662267 206.96119127 453.1432319 206.93139648 451.12011719 C206.91084556 449.16156609 206.92005949 447.20277466 206.92993164 445.24414062 C206.91381836 444.07447754 206.89770508 442.90481445 206.88110352 441.69970703 C207.63488581 437.56469087 209.2207451 436.10408551 212.46118164 433.51757812 C215.46118164 432.89257812 215.46118164 432.89257812 218.46118164 433.51757812 C221.76175439 436.13559876 223.29130002 437.61012715 224.07641602 441.80395508 C224.06578125 443.63639771 224.06578125 443.63639771 224.05493164 445.50585938 C224.05497192 446.16788864 224.05501221 446.82991791 224.05505371 447.51200867 C224.04971251 448.90808639 224.03218891 450.30416477 224.00317383 451.69995117 C223.96149966 453.813946 223.96209502 455.9247279 223.96899414 458.0390625 C223.89955022 473.464963 223.89955022 473.464963 218.55883789 479.75976562 C217.88723633 480.29859375 217.21563477 480.83742188 216.52368164 481.39257812 C215.8546582 481.946875 215.18563477 482.50117188 214.49633789 483.07226562 C211.1602967 485.44143116 208.55995741 486.76590965 204.43057632 486.77764034 C203.23470913 486.78823873 203.23470913 486.78823873 202.01468301 486.79905123 C201.14465512 486.79663614 200.27462723 486.79422106 199.37823486 486.79173279 C198.44941175 486.79696947 197.52058864 486.80220615 196.56361938 486.80760151 C193.44381821 486.82263191 190.32418062 486.82330734 187.2043457 486.82397461 C184.97045616 486.8315941 182.73656924 486.84002123 180.50268555 486.84919739 C174.42819378 486.8711713 168.35375237 486.87994531 162.27922535 486.88502383 C158.48470523 486.8886643 154.69019836 486.89490277 150.89568329 486.90202522 C140.38533502 486.92148395 129.87499469 486.93799493 119.36462784 486.94090176 C118.69216545 486.94108933 118.01970307 486.9412769 117.32686304 486.94147015 C115.96367121 486.9418364 114.60047938 486.94220009 113.23728755 486.94256126 C112.56061596 486.94274407 111.88394437 486.94292688 111.18676758 486.94311523 C110.17051806 486.94338606 110.17051806 486.94338606 109.13373825 486.94366235 C98.15914701 486.94720297 87.18475211 486.97421848 76.21022895 487.01161312 C64.93705387 487.04971728 53.66397294 487.06861854 42.39072204 487.06936127 C36.06352122 487.07015468 29.73657363 487.07892296 23.40943146 487.10735893 C17.45694303 487.13351198 11.50491827 487.13575978 5.55239868 487.11970329 C3.36911764 487.11788657 1.1858101 487.12459955 -0.99741364 487.140522 C-3.98147034 487.16095595 -6.96390079 487.15044575 -9.94793701 487.13230896 C-10.80904201 487.14550893 -11.67014701 487.1587089 -12.55734611 487.17230886 C-19.40627704 487.07743141 -24.09759056 484.76566236 -29.06727195 480.07491106 C-33.9503385 474.6541037 -34.78851941 469.24052667 -34.79329395 462.14863777 C-34.79650043 461.42486429 -34.79970691 460.7010908 -34.80301055 459.95538479 C-34.81131423 457.52926787 -34.80538502 455.10339759 -34.79951477 452.67727661 C-34.80253529 450.92063321 -34.80642427 449.16399113 -34.81110734 447.40735137 C-34.82140896 442.57925932 -34.8192 437.75124134 -34.81492674 432.92314315 C-34.81246345 427.71649479 -34.82146876 422.50986445 -34.82896423 417.30322266 C-34.84172432 407.10245411 -34.84350329 396.90171187 -34.84116397 386.70093669 C-34.8393821 378.41071745 -34.84112763 370.12050621 -34.84538841 361.83028793 C-34.8459836 360.65110677 -34.84657879 359.4719256 -34.84719202 358.25701167 C-34.84840375 355.86162473 -34.84961788 353.46623778 -34.85083439 351.07085083 C-34.86171499 328.59842507 -34.85954498 306.1260143 -34.85344955 283.65358768 C-34.84828 263.08933409 -34.85953592 242.52512786 -34.87854777 221.96088363 C-34.8979137 200.85201892 -34.90618435 179.74317663 -34.90242451 158.63430297 C-34.90051057 146.78068285 -34.90301883 134.92710303 -34.91713905 123.07349014 C-34.92903797 112.98236497 -34.93047448 102.89130494 -34.91834889 92.8001789 C-34.91244973 87.65087621 -34.91138941 82.50169275 -34.92335129 77.35239792 C-34.93417455 72.63849819 -34.93114917 67.92481774 -34.9170896 63.21092843 C-34.91443285 61.50572784 -34.91683979 59.80051027 -34.92482547 58.09532632 C-34.93493316 55.77602035 -34.9265087 53.45747638 -34.91354847 51.13820076 C-34.91360349 49.85040407 -34.9136585 48.56260739 -34.91371518 47.23578656 C-34.38780391 42.01982419 -33.09400231 37.35058755 -29.63647461 33.27539062 C-28.96487305 32.7365625 -28.29327148 32.19773437 -27.60131836 31.64257812 C-26.93229492 31.08828125 -26.26327148 30.53398437 -25.57397461 29.96289062 C-21.78944948 27.27522403 -19.07908977 26.26677223 -14.40649414 26.22705078 C-13.38508331 26.21429108 -12.36367249 26.20153137 -11.31130981 26.18838501 C-9.66435623 26.18504654 -9.66435623 26.18504654 -7.98413086 26.18164062 C-6.84982635 26.17498383 -5.71552185 26.16832703 -4.54684448 26.16146851 C-2.14786399 26.15134553 0.25114465 26.14665138 2.65014648 26.14697266 C6.31549629 26.14260279 9.97963886 26.10628647 13.64477539 26.06835938 C15.97680253 26.0624905 18.30883538 26.05852158 20.64086914 26.05664062 C21.73478973 26.04226959 22.82871033 26.02789856 23.95578003 26.01309204 C30.08582219 26.04979456 33.84489478 26.32606784 38.46118164 30.51757812 C40.10571289 33.32226562 40.10571289 33.32226562 41.27368164 36.39257812 C41.67200195 37.400625 42.07032227 38.40867188 42.48071289 39.44726562 C43.46118164 42.51757812 43.46118164 42.51757812 44.46118164 48.51757812 C77.46118164 48.51757812 110.46118164 48.51757812 144.46118164 48.51757812 C145.12118164 45.54757813 145.78118164 42.57757813 146.46118164 39.51757812 C147.57446289 36.55664062 147.57446289 36.55664062 148.77368164 34.14257812 C149.35569336 32.92441406 149.35569336 32.92441406 149.94946289 31.68164062 C151.953866 28.81228836 153.21621488 27.96310474 156.46118164 26.51757812 C160.31944256 26.04579555 164.15973237 26.04954802 168.04321289 26.04882812 C169.1713591 26.0412146 170.29950531 26.03360107 171.46183777 26.02575684 C173.84644358 26.01496215 176.23109666 26.01210014 178.61572266 26.01660156 C182.25056592 26.01757195 185.88328466 25.97597927 189.51782227 25.93164062 C191.83878142 25.9264319 194.15974789 25.92374546 196.48071289 25.92382812 C198.10140434 25.89923523 198.10140434 25.89923523 199.75483704 25.87414551 C207.46816861 25.94421603 212.36901133 27.6311323 217.9803009 32.96032715 C223.15500235 38.66502508 223.75766657 44.56410622 223.65649414 51.97851562 C223.6522493 53.16436752 223.6522493 53.16436752 223.6479187 54.37417603 C223.63679119 56.88046896 223.6117009 59.38639457 223.58618164 61.89257812 C223.57614222 63.59960419 223.56701805 65.30663589 223.55883789 67.01367188 C223.53687627 71.18178053 223.50239835 75.34961721 223.46118164 79.51757812 C226.76118164 79.51757812 230.06118164 79.51757812 233.46118164 79.51757812 C233.39184783 74.41254084 233.30366524 69.30828727 233.19873047 64.20385742 C233.16567365 62.47087367 233.13758311 60.73778723 233.11474609 59.00463867 C233.08084272 56.49939602 233.02851436 53.99507833 232.97290039 51.49023438 C232.96331551 50.34591698 232.96331551 50.34591698 232.95353699 49.17848206 C232.69166333 39.3872319 229.39813503 31.46759546 222.46118164 24.51757812 C210.34532358 14.85791616 195.42025038 16.22676932 180.74243164 16.25878906 C178.65030801 16.25607558 176.55818533 16.25251265 174.46606445 16.24816895 C168.80910886 16.23908518 163.15222658 16.24257262 157.49526978 16.24892712 C151.56137908 16.25400792 145.62749447 16.24928989 139.69360352 16.24615479 C129.73070149 16.2425212 119.76782916 16.2472983 109.80493164 16.25683594 C98.30384694 16.2677193 86.80283317 16.26419329 75.30175018 16.25318313 C65.40843857 16.24409295 55.51514824 16.24283344 45.6218338 16.24806046 C39.72118468 16.25117064 33.82056883 16.25161572 27.91992188 16.24498749 C22.3712636 16.23918947 16.82269634 16.24325578 11.27404785 16.254776 C9.24361319 16.25740947 7.2131708 16.25668007 5.18273926 16.25225067 C-16.5997938 15.99028931 -16.5997938 15.99028931 -35.35522461 26.08007812 C-42.87029551 33.91534002 -44.12798834 44.21701968 -44.07788086 54.60742188 C-44.08967377 55.71436905 -44.10146667 56.82131622 -44.11361694 57.96180725 C-44.14861096 61.45971097 -44.15802486 64.95701425 -44.16381836 68.45507812 C-44.18017587 71.97795638 -44.20218556 75.5005704 -44.23544312 79.02333069 C-44.25503964 81.2057461 -44.26441163 83.3882831 -44.26235962 85.57078552 C-44.272798 87.04866295 -44.272798 87.04866295 -44.28344727 88.55639648 C-44.28470612 89.42034531 -44.28596497 90.28429413 -44.28726196 91.17442322 C-44.56247363 93.73791827 -45.16448085 95.34594636 -46.53881836 97.51757812 C-49.66824301 99.08229045 -53.14964059 99.2145977 -56.53881836 98.51757812 C-59.02420306 96.49654572 -60.37920228 95.28582676 -61.0400238 92.10522461 C-61.04018997 91.20876221 -61.04035614 90.3122998 -61.04052734 89.38867188 C-61.04990829 88.36660645 -61.05928925 87.34454102 -61.06895447 86.29150391 C-61.05772049 85.1904834 -61.04648651 84.08946289 -61.03491211 82.95507812 C-61.03636734 81.81280762 -61.03782257 80.67053711 -61.0393219 79.49365234 C-61.03766133 77.07272802 -61.02608259 74.65179332 -61.00537109 72.23095703 C-60.97664324 68.55910265 -60.9847152 64.88871318 -60.99780273 61.21679688 C-60.9915579 58.85871704 -60.98316118 56.50064173 -60.97241211 54.14257812 C-60.97534775 53.05775146 -60.97828339 51.9729248 -60.98130798 50.85522461 C-60.81056897 36.7579706 -56.98307021 24.1374294 -47.22631836 13.64257812 C-43.12584113 9.88913461 -38.53637603 6.93220119 -33.53881836 4.51757812 C-32.90905814 4.18787773 -32.27929792 3.85817734 -31.63045406 3.51848602 C-21.59243076 -0.96678241 -10.75872474 -0.04285119 0 0 Z M23.46118164 246.51757812 C23.46118164 258.39757812 23.46118164 270.27757812 23.46118164 282.51757812 C37.99337733 282.63402506 37.99337733 282.63402506 52.52563477 282.71289062 C58.45750334 282.73675249 64.38912367 282.76490563 70.32080078 282.81933594 C75.10595473 282.86296804 79.89084227 282.88675186 84.67617989 282.8970871 C86.49694573 282.9044474 88.31769787 282.91882013 90.13834953 282.94049835 C103.47395503 283.52958051 103.47395503 283.52958051 115.46118164 278.51757812 C119.56696624 274.08442692 121.19634988 270.27182847 121.77368164 264.26757812 C121.28629182 258.41890025 119.22340433 254.23461562 115.02368164 250.14257812 C109.7546326 246.80122995 105.34692042 246.23277416 99.18261719 246.29052734 C97.9525721 246.29008926 97.9525721 246.29008926 96.69767761 246.28964233 C93.99764279 246.29103137 91.29788678 246.30657246 88.59790039 246.32226562 C86.72174734 246.32599727 84.84559234 246.32884353 82.96943665 246.33084106 C78.03911936 246.33846558 73.1089205 246.35810395 68.1786499 246.38024902 C63.14458824 246.40073289 58.11050737 246.40984822 53.07641602 246.41992188 C43.2046109 246.44135095 33.33292466 246.4765235 23.46118164 246.51757812 Z " fill="#000000" transform="translate(82.538818359375,-0.517578125)"/>
<path d="M0 0 C0.8412291 -0.0065712 1.68245819 -0.0131424 2.54917908 -0.01991272 C5.33153378 -0.03961092 8.11383449 -0.05130308 10.89624023 -0.0612793 C12.32644155 -0.06739259 12.32644155 -0.06739259 13.78553581 -0.07362938 C18.83618832 -0.09447934 23.88681378 -0.10878344 28.9375 -0.11816406 C34.13346503 -0.12920186 39.32899868 -0.16357448 44.52481174 -0.20333576 C48.53735606 -0.22958984 52.54979916 -0.23786388 56.5624218 -0.24144554 C58.47641843 -0.24629196 60.39041113 -0.25784993 62.3043232 -0.27648354 C86.76850153 -0.49978247 86.76850153 -0.49978247 96.14233398 8.33325195 C102.31542117 15.92100495 104.59675122 24.57905964 103.64233398 34.17700195 C101.96513622 41.17331265 99.31998408 47.55789679 93.64233398 52.17700195 C86.12236588 56.7460965 80.02414887 58.32430275 71.28466797 58.35400391 C70.44343887 58.3605751 69.60220978 58.3671463 68.73548889 58.37391663 C65.95313419 58.39361482 63.17083348 58.40530699 60.38842773 58.4152832 C58.95822642 58.42139649 58.95822642 58.42139649 57.49913216 58.42763329 C52.44847965 58.44848325 47.39785418 58.46278734 42.34716797 58.47216797 C37.15120294 58.48320576 31.95566929 58.51757839 26.75985622 58.55733967 C22.74731191 58.58359375 18.7348688 58.59186779 14.72224617 58.59544945 C12.80824954 58.60029587 10.89425683 58.61185383 8.98034477 58.63048744 C-15.48383357 58.85378638 -15.48383357 58.85378638 -24.85766602 50.02075195 C-31.0307532 42.43299896 -33.31208325 33.77494427 -32.35766602 24.17700195 C-30.68046825 17.18069126 -28.03531611 10.79610712 -22.35766602 6.17700195 C-14.83769791 1.60790741 -8.73948091 0.02970115 0 0 Z M-15.35766602 22.86450195 C-16.68053505 27.24650564 -16.69373061 30.78823219 -15.35766602 35.17700195 C-12.75857155 38.47855438 -10.27159577 40.68669469 -6.35766602 42.17700195 C-3.63899917 42.37768239 -1.02240431 42.47077124 1.69628906 42.4675293 C2.50492905 42.47424652 3.31356903 42.48096375 4.14671326 42.48788452 C6.81849321 42.50687304 9.49002201 42.51078932 12.16186523 42.51293945 C14.02268069 42.51936744 15.88349514 42.5260958 17.74430847 42.53311157 C21.64564354 42.54508693 25.54689004 42.54879219 29.44824219 42.54760742 C34.43837761 42.54740437 39.42794265 42.57469122 44.417943 42.60915184 C48.26220793 42.63143202 52.10633592 42.6354446 55.9506588 42.63438797 C57.78980154 42.63674283 59.62894812 42.64555987 61.46802711 42.6610527 C64.04581789 42.68073289 66.62238319 42.67486686 69.20019531 42.6628418 C69.95420624 42.67408081 70.70821716 42.68531982 71.4850769 42.69689941 C76.94362295 42.63246144 80.13731605 41.28607664 84.64233398 38.17700195 C87.27691193 34.63678784 87.87144663 31.92468352 87.64233398 27.61450195 C86.9533112 23.11692465 85.29343643 20.97901081 81.64233398 18.17700195 C77.86799878 15.65847195 73.96845913 15.88125152 69.58837891 15.88647461 C68.77973892 15.87975739 67.97109894 15.87304016 67.13795471 15.86611938 C64.46617476 15.84713086 61.79464596 15.84321459 59.12280273 15.84106445 C57.26198728 15.83463646 55.40117283 15.8279081 53.5403595 15.82089233 C49.63902443 15.80891697 45.73777793 15.80521171 41.83642578 15.80639648 C36.84629036 15.80659954 31.85672532 15.77931268 26.86672497 15.74485207 C23.02246004 15.72257188 19.17833205 15.71855931 15.33400917 15.71961594 C13.49486643 15.71726108 11.65571985 15.70844403 9.81664085 15.6929512 C7.23885008 15.67327101 4.66228478 15.67913705 2.08447266 15.69116211 C1.33046173 15.6799231 0.57645081 15.66868408 -0.20040894 15.65710449 C-6.60329483 15.73269037 -11.39727253 17.54272321 -15.35766602 22.86450195 Z " fill="#000000" transform="translate(141.357666015625,363.822998046875)"/>
<path d="M0 0 C0.67398834 -0.00700928 1.34797668 -0.01401855 2.04238892 -0.02124023 C4.25394802 -0.03873958 6.46421082 -0.02722786 8.67578125 -0.01367188 C10.22225183 -0.01636915 11.76872075 -0.02025353 13.31518555 -0.02526855 C16.54980684 -0.03115263 19.78398507 -0.02263642 23.01855469 -0.00390625 C27.15465058 0.01888328 31.28970815 0.00575424 35.42576599 -0.01819611 C38.61722569 -0.032684 41.80844119 -0.02803454 44.99990845 -0.01768494 C46.52446619 -0.01502588 48.04904646 -0.01825842 49.57357788 -0.02760315 C51.70849926 -0.037819 53.84176383 -0.02220127 55.9765625 0 C57.18868408 0.00318237 58.40080566 0.00636475 59.6496582 0.00964355 C64.80546777 0.79404296 67.87809948 3.29906335 71.33007812 7.08789062 C73.65841107 11.90361813 73.56231299 16.1080751 73.51953125 21.39257812 C73.52527161 22.95661377 73.52527161 22.95661377 73.53112793 24.55224609 C73.53384303 26.75098642 73.5265101 28.94975926 73.50976562 31.1484375 C73.48835129 34.50659459 73.50958204 37.86261228 73.53515625 41.22070312 C73.5325129 43.36133283 73.52738779 45.50196121 73.51953125 47.64257812 C73.52762817 48.64272949 73.5357251 49.64288086 73.54406738 50.67333984 C73.46686644 56.43603244 73.03287022 60.07831284 68.98828125 64.51757812 C64.52717367 68.02352406 61.62797023 69.02031872 55.9765625 69.03515625 C55.30257416 69.04216553 54.62858582 69.0491748 53.93417358 69.05639648 C51.72261448 69.07389583 49.51235168 69.06238411 47.30078125 69.04882812 C45.75431067 69.0515254 44.20784175 69.05540978 42.66137695 69.0604248 C39.42675566 69.06630888 36.19257743 69.05779267 32.95800781 69.0390625 C28.82191192 69.01627297 24.68685435 69.02940201 20.55079651 69.05335236 C17.35933681 69.06784025 14.16812131 69.06319079 10.97665405 69.05284119 C9.45209631 69.05018213 7.92751604 69.05341467 6.40298462 69.0627594 C4.26806324 69.07297525 2.13479867 69.05735752 0 69.03515625 C-1.21212158 69.03197388 -2.42424316 69.0287915 -3.6730957 69.0255127 C-8.82890527 68.24111329 -11.90153698 65.7360929 -15.35351562 61.94726562 C-17.68184857 57.13153812 -17.58575049 52.92708115 -17.54296875 47.64257812 C-17.54679565 46.5998877 -17.55062256 45.55719727 -17.55456543 44.48291016 C-17.55728053 42.28416983 -17.5499476 40.08539699 -17.53320312 37.88671875 C-17.51178879 34.52856166 -17.53301954 31.17254397 -17.55859375 27.81445312 C-17.5559504 25.67382342 -17.55082529 23.53319504 -17.54296875 21.39257812 C-17.55106567 20.39242676 -17.5591626 19.39227539 -17.56750488 18.36181641 C-17.49030394 12.59912381 -17.05630772 8.95684341 -13.01171875 4.51757812 C-8.55061117 1.01163219 -5.65140773 0.01483753 0 0 Z M-1.01171875 16.51757812 C-1.01171875 28.39757812 -1.01171875 40.27757812 -1.01171875 52.51757812 C18.12828125 52.51757812 37.26828125 52.51757812 56.98828125 52.51757812 C56.98828125 40.63757813 56.98828125 28.75757813 56.98828125 16.51757812 C37.84828125 16.51757812 18.70828125 16.51757812 -1.01171875 16.51757812 Z " fill="#000000" transform="translate(152.01171875,117.482421875)"/>
<path d="M0 0 C4.88980073 2.98567272 6.534862 6.75205815 8.4375 11.9375 C8.75460937 12.76999268 9.07171875 13.60248535 9.3984375 14.46020508 C10.14879648 16.43419205 10.89285869 18.41057838 11.63232422 20.38867188 C12.94990755 23.86773161 14.30298629 27.33054985 15.66749573 30.79136658 C16.96503848 34.08850948 18.24835481 37.39109423 19.52957153 40.6946106 C20.17282016 42.34702263 20.82061953 43.99767088 21.47311401 45.64645386 C22.40307735 48.00236296 23.31289316 50.36520305 24.21875 52.73046875 C24.49960953 53.42996643 24.78046906 54.12946411 25.06983948 54.85015869 C26.94594188 59.82990876 27.82272197 64.68088091 27 70 C24.9375 72.625 24.9375 72.625 22 74 C17.05041406 73.91466231 15.55699246 73.55699246 12 70 C11.01 66.7 10.02 63.4 9 60 C1.08 60.33 -6.84 60.66 -15 61 C-15.7425 62.77375 -16.485 64.5475 -17.25 66.375 C-19.44165076 71.61061015 -19.44165076 71.61061015 -21.94921875 73.359375 C-25.23302742 74.38517428 -27.71089075 73.83722781 -31 73 C-33.64798546 70.77910897 -33.95565027 69.43972663 -34.30151367 66.01049805 C-34.20877408 60.80857365 -32.13067996 56.23401655 -30.23828125 51.45703125 C-29.85061081 50.45218185 -29.46294037 49.44733246 -29.06352234 48.41203308 C-27.82410127 45.20782578 -26.56841499 42.01027318 -25.3125 38.8125 C-24.4865898 36.68204367 -23.66170967 34.5511877 -22.83789062 32.41992188 C-20.91058666 27.44442344 -18.95917526 22.47895902 -16.9932251 17.51861572 C-16.13061519 15.33121342 -15.2834285 13.13880706 -14.44287109 10.94287109 C-14.02215332 9.87246582 -13.60143555 8.80206055 -13.16796875 7.69921875 C-12.83434326 6.83514404 -12.50071777 5.97106934 -12.15698242 5.08081055 C-9.29606042 -0.06450244 -5.60283561 -0.68806753 0 0 Z M-4 29 C-4.83739781 31.1234016 -5.66980283 33.2487728 -6.5 35.375 C-6.9640625 36.55835938 -7.428125 37.74171875 -7.90625 38.9609375 C-9.11287794 41.7753244 -9.11287794 41.7753244 -9 44 C-5.37 44 -1.74 44 2 44 C1.43174347 38.45949887 -0.62886517 33.96284034 -3 29 C-3.33 29 -3.66 29 -4 29 Z " fill="#000000" transform="translate(376,227)"/>
<path d="M0 0 C1.02158203 -0.00193359 2.04316406 -0.00386719 3.09570312 -0.00585938 C4.6822168 0.02991211 4.6822168 0.02991211 6.30078125 0.06640625 C7.33912109 0.05544922 8.37746094 0.04449219 9.44726562 0.03320312 C17.49654798 0.10890171 24.65804553 1.4406313 31.05078125 6.59375 C36.28414353 13.20086988 39.12928311 19.1731496 38.4375 27.828125 C37.37854754 33.95721347 34.89909378 39.09718645 30.61328125 43.62890625 C24.05046218 48.10355562 17.7790436 49.66193547 9.9296875 49.640625 C9.12088135 49.63893311 8.3120752 49.63724121 7.47875977 49.63549805 C6.5553479 49.63223511 6.5553479 49.63223511 5.61328125 49.62890625 C5.62375488 50.18352539 5.63422852 50.73814453 5.64501953 51.30957031 C5.68670129 53.83263584 5.71264563 56.35562878 5.73828125 58.87890625 C5.75503906 59.75160156 5.77179688 60.62429688 5.7890625 61.5234375 C5.79550781 62.36777344 5.80195313 63.21210938 5.80859375 64.08203125 C5.81906738 64.85708008 5.82954102 65.63212891 5.84033203 66.43066406 C5.58301282 68.92195674 4.90922807 70.49774224 3.61328125 72.62890625 C0.93695099 74.71049645 -0.50425543 74.62478216 -3.94921875 74.50390625 C-7.38671875 73.62890625 -7.38671875 73.62890625 -9.07531738 71.96482849 C-10.76852499 68.94881722 -10.78051682 66.83263304 -10.80664062 63.37915039 C-10.82255249 62.11426285 -10.83846436 60.84937531 -10.8548584 59.54615784 C-10.85612567 58.16879329 -10.85630251 56.79142737 -10.85546875 55.4140625 C-10.86257239 53.99685871 -10.87027169 52.5796578 -10.87854004 51.16246033 C-10.89197703 48.19424441 -10.89355727 45.22629444 -10.88769531 42.25805664 C-10.88179944 38.4601978 -10.91238714 34.66361747 -10.95281219 30.8660059 C-10.97870233 27.93966333 -10.98156554 25.01362812 -10.97792053 22.08718681 C-10.97961057 20.68737003 -10.98924219 19.28753888 -11.00706482 17.88783455 C-11.02927388 15.92803367 -11.01633552 13.96793058 -11.00195312 12.00805664 C-11.00400757 10.89427139 -11.00606201 9.78048615 -11.00817871 8.63294983 C-9.78222385 2.7068692 -5.84752965 -0.00463069 0 0 Z M5.61328125 16.62890625 C5.61328125 22.23890625 5.61328125 27.84890625 5.61328125 33.62890625 C13.78372295 33.84839039 13.78372295 33.84839039 20.36328125 30.31640625 C22.06083148 28.02471343 22.4774458 26.48145075 22.61328125 23.62890625 C20.99172496 20.14256024 19.84874833 18.78588431 16.61328125 16.62890625 C13.86809804 16.38702974 13.86809804 16.38702974 10.92578125 16.50390625 C9.17265625 16.54515625 7.41953125 16.58640625 5.61328125 16.62890625 Z " fill="#000000" transform="translate(310.38671875,226.37109375)"/>
<path d="M0 0 C4.31690468 3.69617329 7.25898914 8.08521282 10.3125 12.8125 C10.9940918 13.85180664 10.9940918 13.85180664 11.68945312 14.91210938 C12.79831476 16.6045824 13.89991438 18.30180958 15 20 C15.43570312 19.3709375 15.87140625 18.741875 16.3203125 18.09375 C19.25967379 13.86921342 22.2110828 9.65369587 25.25 5.5 C25.70890625 4.8709375 26.1678125 4.241875 26.640625 3.59375 C28 2 28 2 31 0 C34.33466685 0.17864287 36.9860269 0.44395023 39.9375 2.0625 C41.7370954 5.34411515 41.68304667 8.42222252 41 12 C39.08868752 15.99444074 36.67037262 19.59051484 34.1875 23.25 C33.54490234 24.2296875 32.90230469 25.209375 32.24023438 26.21875 C27.41353234 33.54133215 27.41353234 33.54133215 25.31567383 35.86816406 C23.41950977 38.94059023 23.61405621 41.44443418 23.59375 45.03125 C23.58291382 45.70418091 23.57207764 46.37711182 23.56091309 47.07043457 C23.5267388 49.21372153 23.5110764 51.35647676 23.5 53.5 C23.48541029 56.32342637 23.45170995 59.14567046 23.40625 61.96875 C23.39916016 63.22107422 23.39207031 64.47339844 23.38476562 65.76367188 C22.97463753 69.21332797 22.48379072 70.6140643 20 73 C16.05843668 74.0948787 13.90656321 74.39415792 10.125 72.75 C8 71 8 71 7 68 C6.97728357 65.91405452 7.00892304 63.82735318 7.0703125 61.7421875 C7.27022069 45.22807825 6.11367563 33.99816845 -5 21 C-11.32858205 12.6098344 -11.32858205 12.6098344 -11.625 7.6875 C-11 4 -11 4 -9.4375 1.5 C-6.00863886 -0.61006839 -3.95779649 -0.62491523 0 0 Z " fill="#000000" transform="translate(408,227)"/>
<path d="M0 0 C3.21625747 0.54744808 4.6450691 1.2075691 6.9375 3.5 C8.20373134 7.29869402 8.23889516 10.91372112 8.3125 14.875 C8.34988281 15.63039062 8.38726562 16.38578125 8.42578125 17.1640625 C8.49279023 21.42285539 8.31039865 23.0204698 5.6015625 26.50390625 C2.9375 28.5 2.9375 28.5 -0.0625 29.0625 C-3.93592366 28.33623306 -5.38296018 27.41099509 -8.0625 24.5 C-8.81204287 21.34180949 -8.76101401 18.29466609 -8.6875 15.0625 C-8.70683594 14.21623047 -8.72617187 13.36996094 -8.74609375 12.49804688 C-8.71118986 8.04082001 -8.49739751 6.06804417 -5.71484375 2.43359375 C-3.0625 0.5 -3.0625 0.5 0 0 Z " fill="#000000" transform="translate(432.0625,135.5)"/>
<path d="M0 0 C4.1287525 0.86015677 5.41824144 2.30559614 8 5.625 C8.72122914 8.64670141 8.70033855 11.531097 8.625 14.625 C8.65400391 15.81609375 8.65400391 15.81609375 8.68359375 17.03125 C8.64758792 21.35194962 8.38069659 23.13553296 5.6484375 26.6484375 C3 28.625 3 28.625 0 29.25 C-4.1287525 28.38984323 -5.41824144 26.94440386 -8 23.625 C-8.72122914 20.60329859 -8.70033855 17.718903 -8.625 14.625 C-8.64433594 13.8309375 -8.66367187 13.036875 -8.68359375 12.21875 C-8.64758792 7.89805038 -8.38069659 6.11446704 -5.6484375 2.6015625 C-3 0.625 -3 0.625 0 0 Z " fill="#000000" transform="translate(405,135.375)"/>
<path d="M0 0 C2.66015625 1.39453125 2.66015625 1.39453125 5 4 C5.75151227 7.34459219 5.69817388 10.58521892 5.625 14 C5.65400391 15.35351562 5.65400391 15.35351562 5.68359375 16.734375 C5.63505124 23.29732267 5.63505124 23.29732267 2.65234375 26.59765625 C-0.56949669 28.30110355 -2.40301598 28.53572102 -6 28 C-9.1359157 26.22015595 -9.84102736 25.47691793 -11 22 C-11.14821529 19.36062776 -11.23097341 16.76493877 -11.25 14.125 C-11.270625 13.41730469 -11.29125 12.70960938 -11.3125 11.98046875 C-11.34620196 7.45598041 -10.80743987 4.58425575 -8 1 C-5.14675563 -0.42662219 -3.16545451 -0.31033868 0 0 Z " fill="#000000" transform="translate(323,136)"/>
<path d="M0 0 C2.58455285 1.89533875 2.96275506 2.88826517 4 6 C4.14648082 8.26763574 4.2209626 10.54032366 4.25 12.8125 C4.27578125 14.01519531 4.3015625 15.21789062 4.328125 16.45703125 C3.96988255 20.32519675 3.02701188 22.70856566 1 26 C-2.09173752 27.54586876 -4.59429552 27.29359521 -8 27 C-10.19140625 25.60546875 -10.19140625 25.60546875 -12 23 C-12.61935388 19.65800614 -12.60367221 16.39065226 -12.5625 13 C-12.58634766 12.09765625 -12.61019531 11.1953125 -12.63476562 10.265625 C-12.62021083 3.70626377 -12.62021083 3.70626377 -9.69140625 0.37109375 C-6.01975074 -1.49937227 -3.91944064 -1.08873351 0 0 Z " fill="#000000" transform="translate(353,137)"/>
<path d="M0 0 C2.13210583 1.60162384 2.89923404 2.47303358 3.40405273 5.11303711 C3.43597843 7.72223715 3.45781382 10.32809713 3.4375 12.9375 C3.4674707 14.2977832 3.4674707 14.2977832 3.49804688 15.68554688 C3.49318588 22.29164448 3.49318588 22.29164448 1.19140625 25.59765625 C-2.04104986 27.66619768 -4.24888772 27.53587318 -8 27 C-10.90717073 24.78136971 -11.83981643 23.48055071 -13 20 C-13.12093495 17.71067322 -13.17538326 15.41748676 -13.1875 13.125 C-13.20167969 11.91070312 -13.21585937 10.69640625 -13.23046875 9.4453125 C-13.00861826 6.12883561 -12.50229402 3.94020401 -11 1 C-7.5127355 -1.84147478 -4.16912951 -0.98543061 0 0 Z " fill="#000000" transform="translate(286,137)"/>
</svg>
