<?xml version="1.0" encoding="UTF-8"?>
<svg version="1.1" xmlns="http://www.w3.org/2000/svg" width="512" height="512">
<path d="M0 0 C1.08716309 0.01788574 2.17432617 0.03577148 3.29443359 0.05419922 C38.41954419 0.72581683 73.41212693 4.2916338 108.0625 10.0625 C109.45408325 10.28764282 109.45408325 10.28764282 110.8737793 10.51733398 C116.80530336 11.55653477 121.85407461 12.79276246 126.1875 17.25 C128 20 128 20 129.28515625 23.30078125 C130.90499622 27.15552648 133.34870893 29.97286845 136.25 32.9375 C137.24417118 33.98633351 138.23766181 35.03581253 139.23046875 36.0859375 C139.70919434 36.58706055 140.18791992 37.08818359 140.68115234 37.60449219 C142.92923028 39.9832433 145.05112946 42.46733863 147.18359375 44.94921875 C148.57892913 46.52459741 150.01711414 48.06210497 151.47265625 49.58203125 C152.34792969 50.50371094 153.22320312 51.42539063 154.125 52.375 C154.93195313 53.20773438 155.73890625 54.04046875 156.5703125 54.8984375 C164.67873082 65.2490551 164.5898476 74.20467729 164.09765625 87.03320312 C163.96968935 94.38560016 163.96968935 94.38560016 167.01757812 100.86669922 C169.24914867 103.07574203 171.55499076 105.03574114 174 107 C177.4929688 113.98593759 175.64777325 127.3480953 173.375 134.5625 C167.37671408 149.63187796 158.41730093 157.28342913 144.68261719 165.02148438 C143.22038863 165.87183435 141.81100932 166.81181841 140.4140625 167.765625 C137.45121802 169.28060697 135.28271771 169.22902682 132 169 C132.05800781 167.70707031 132.11601562 166.41414062 132.17578125 165.08203125 C132.68045543 149.11555575 129.87975538 137.29797303 119 125 C108.50570386 115.05470124 95.45083703 111.36115262 81.3046875 111.68359375 C72.2556501 112.16017373 64.21925867 115.64428099 57 121 C56.39542969 121.44085938 55.79085938 121.88171875 55.16796875 122.3359375 C45.27690631 130.13673184 39.56900507 142.64464382 38 155 C37.94949147 157.43181738 37.93611603 159.86459262 37.953125 162.296875 C37.96327637 164.18164551 37.96327637 164.18164551 37.97363281 166.10449219 C37.98233398 167.06000977 37.99103516 168.01552734 38 169 C20.43750917 169.03149384 2.87501534 169.05137624 -14.6875 169.0625 C-15.35298528 169.0629343 -16.01847056 169.06336861 -16.70412207 169.06381607 C-62.15905821 169.09265642 -107.60927482 168.89127895 -153.0625 168.5 C-153.75788234 168.49402628 -154.45326468 168.48805257 -155.16971922 168.48189783 C-172.7798986 168.33043742 -190.38999012 168.17005851 -208 168 C-207.98187256 167.00129883 -207.96374512 166.00259766 -207.94506836 164.97363281 C-207.93039931 163.63346815 -207.91618198 162.2932985 -207.90234375 160.953125 C-207.88421631 159.64504883 -207.86608887 158.33697266 -207.84741211 156.98925781 C-208.35944994 143.60254083 -214.21730992 132.30967124 -223.75 123.125 C-232.69788009 115.51181131 -243.60706442 111.59490417 -255.3125 111.6875 C-256.06088135 111.69313965 -256.8092627 111.6987793 -257.58032227 111.70458984 C-267.95073021 111.93132676 -275.42829892 115.27017114 -284 121 C-284.886875 121.5775 -285.77375 122.155 -286.6875 122.75 C-296.7411687 132.53194793 -301.81962734 145.46423188 -302.5625 159.25 C-302.60568359 159.99507812 -302.64886719 160.74015625 -302.69335938 161.5078125 C-302.79896725 163.338349 -302.89994201 165.16915176 -303 167 C-320.75430271 163.33709774 -320.75430271 163.33709774 -327 157 C-327.54914063 156.46375 -328.09828125 155.9275 -328.6640625 155.375 C-335.84557324 147.73358956 -337.59833207 140.25538106 -337.47045898 130.00756836 C-336.93718801 116.17523038 -332.37169677 100.42255239 -322.75 90.0625 C-297.44686523 67.76898919 -257.69313829 60.21678512 -225.39428711 55.57543945 C-214.74171987 54.01844139 -206.60841355 51.50135226 -197.27880859 46.23632812 C-136.71155046 13.37661148 -68.51418767 -1.15706859 0 0 Z M-159 43 C-162.91569806 50.45041723 -162.4559215 57.88832055 -160.5 65.875 C-160.08234375 67.60363281 -160.08234375 67.60363281 -159.65625 69.3671875 C-159.4396875 70.23601562 -159.223125 71.10484375 -159 72 C-124.6694967 69.41857683 -90.34101579 66.8109382 -56.01669312 64.14849854 C-52.59522802 63.8831362 -49.17369702 63.61864924 -45.75210571 63.35491943 C-41.6941682 63.04206821 -37.63638174 62.7273249 -33.57870293 62.41113663 C-32.08463892 62.29500145 -30.5905262 62.179491 -29.09636116 62.06466293 C-27.04049824 61.90653474 -24.9848333 61.74603311 -22.92919922 61.58496094 C-21.7781369 61.49567322 -20.62707458 61.4063855 -19.44113159 61.31439209 C-15.61825864 60.96512297 -11.80915128 60.47614391 -8 60 C-8 45.48 -8 30.96 -8 16 C-52.84562476 15.46928255 -120.79102163 15.3381433 -159 43 Z M10 18 C10 31.2 10 44.4 10 58 C21.92421475 58 33.66035499 57.51074829 45.54538918 56.66598892 C48.9284148 56.42620397 52.30979881 56.2084638 55.69726562 56.04150391 C72.41492169 56.07074596 72.41492169 56.07074596 86.52816772 48.72747803 C89.53822173 44.81621511 91.48198606 40.93115514 92 36 C91.19078127 33.23204449 91.19078127 33.23204449 89 31 C83.82914307 28.81258301 78.7373557 27.34088346 73.22265625 26.28125 C72.14181511 26.06638695 72.14181511 26.06638695 71.03913879 25.84718323 C68.7152214 25.38923017 66.3892393 24.94337785 64.0625 24.5 C62.86938202 24.26988724 62.86938202 24.26988724 61.65216064 24.03512573 C44.50250893 20.74052732 27.50383248 18 10 18 Z " fill="#000000" transform="translate(337,156)"/>
<path d="M0 0 C5.28748535 4.92283119 9.36487206 10.25563791 12 17 C12.35707031 17.90878906 12.71414063 18.81757813 13.08203125 19.75390625 C14.13188048 23.46635183 14.34453529 26.92361389 14.3125 30.75 C14.30686035 31.45519775 14.3012207 32.16039551 14.29541016 32.88696289 C14.05978444 43.07602545 11.00100128 49.92358541 5 58 C4.4225 58.886875 3.845 59.77375 3.25 60.6875 C-4.37145159 68.52065858 -15.00027469 72.43270824 -25.72265625 73.0546875 C-37.59675743 72.85654994 -47.30858229 69.12004428 -56.05859375 61.1171875 C-64.18197537 52.48718638 -67.46459423 42.75280949 -68 31 C-67.52889109 18.78156259 -62.35401604 8.18925102 -53.42578125 -0.09375 C-37.47357535 -12.62946092 -16.0276798 -12.04694887 0 0 Z M-23 7 C-23 10.63 -23 14.26 -23 18 C-21.68 18.33 -20.36 18.66 -19 19 C-17.21568355 17.82050127 -17.21568355 17.82050127 -15.75 16.0625 C-15.22921875 15.49660156 -14.7084375 14.93070312 -14.171875 14.34765625 C-13.78515625 13.90292969 -13.3984375 13.45820313 -13 13 C-13.33 12.01 -13.66 11.02 -14 10 C-16.09719872 8.97718482 -16.09719872 8.97718482 -18.5625 8.3125 C-20.026875 7.879375 -21.49125 7.44625 -23 7 Z M-41 11 C-40.09827532 12.17825358 -39.17798498 13.34231577 -38.25 14.5 C-37.73953125 15.1496875 -37.2290625 15.799375 -36.703125 16.46875 C-34.88595704 18.44572515 -34.88595704 18.44572515 -31 18 C-31 14.7 -31 11.4 -31 8 C-35.33094958 8 -37.27034861 8.96564469 -41 11 Z M-47 18 C-49.83374881 21.20336822 -50.5205537 23.78087253 -51 28 C-47.37 28 -43.74 28 -40 28 C-40.80543113 22.99355011 -40.80543113 22.99355011 -44.0625 20.1875 C-45.031875 19.465625 -46.00125 18.74375 -47 18 Z M-7 18 C-9.31 20.31 -11.62 22.62 -14 25 C-13.67 25.99 -13.34 26.98 -13 28 C-9.37 28 -5.74 28 -2 28 C-2.680625 25.8034375 -2.680625 25.8034375 -3.375 23.5625 C-3.63023437 22.73878906 -3.88546875 21.91507812 -4.1484375 21.06640625 C-4.80882227 18.82201984 -4.80882227 18.82201984 -7 18 Z M-51 36 C-50.01 38.97 -49.02 41.94 -48 45 C-44.99204833 45.34509128 -44.99204833 45.34509128 -43.39453125 43.46875 C-42.87246094 42.8190625 -42.35039062 42.169375 -41.8125 41.5 C-41.28269531 40.8503125 -40.75289063 40.200625 -40.20703125 39.53125 C-39.80871094 39.0259375 -39.41039062 38.520625 -39 38 C-39.33 37.34 -39.66 36.68 -40 36 C-43.63 36 -47.26 36 -51 36 Z M-13 36 C-13.33 36.99 -13.66 37.98 -14 39 C-11.69 41.31 -9.38 43.62 -7 46 C-3.8162018 42.40538913 -2.98425899 40.92129494 -2 36 C-5.63 36 -9.26 36 -13 36 Z M-35.60546875 46.2421875 C-36.12753906 46.78101563 -36.64960938 47.31984375 -37.1875 47.875 C-37.71730469 48.40867187 -38.24710937 48.94234375 -38.79296875 49.4921875 C-40.20831389 50.93831877 -40.20831389 50.93831877 -40 53 C-37.03 53.99 -34.06 54.98 -31 56 C-31 52.37 -31 48.74 -31 45 C-33.94286738 44.69402985 -33.94286738 44.69402985 -35.60546875 46.2421875 Z M-22 45 C-23.25949049 46.03406673 -23.25949049 46.03406673 -23.09765625 48.28515625 C-23.08605469 49.20167969 -23.07445312 50.11820312 -23.0625 51.0625 C-23.05347656 51.98160156 -23.04445313 52.90070313 -23.03515625 53.84765625 C-23.02355469 54.55792969 -23.01195312 55.26820313 -23 56 C-19.28111761 55.49287967 -16.26545761 54.88391785 -13 53 C-14.44126786 49.63704165 -16.20592655 47.37072898 -19 45 C-19.99 45 -20.98 45 -22 45 Z " fill="#000000" transform="translate(449,283)"/>
<path d="M0 0 C4.92797001 3.81314106 8.14752932 7.87759632 11.125 13.3125 C11.7025 14.281875 12.28 15.25125 12.875 16.25 C17.39457257 27.32295279 16.92962183 38.13009438 13.125 49.3125 C8.72376044 59.26249702 1.18368388 66.76158431 -8.6875 71.3125 C-19.43319492 75.29902867 -30.26388523 75.33121262 -40.87890625 71.12109375 C-52.28120246 65.88374368 -59.12838894 58.48263273 -63.84375 46.94140625 C-67.71514842 35.73944324 -66.34929998 25.13697108 -61.875 14.3125 C-56.3234504 3.48862075 -47.55868622 -3.03795303 -36.25 -6.9375 C-23.15829784 -9.76120047 -11.02176736 -7.45196417 0 0 Z M-38.875 12.3125 C-37.43536361 15.67165158 -35.75083411 18.02874938 -32.875 20.3125 C-31.555 19.9825 -30.235 19.6525 -28.875 19.3125 C-28.875 16.0125 -28.875 12.7125 -28.875 9.3125 C-33.20594958 9.3125 -35.14534861 10.27814469 -38.875 12.3125 Z M-20.875 9.3125 C-20.875 12.6125 -20.875 15.9125 -20.875 19.3125 C-16.98904296 19.75822515 -16.98904296 19.75822515 -15.171875 17.78125 C-14.40617187 16.80671875 -14.40617187 16.80671875 -13.625 15.8125 C-13.10421875 15.1628125 -12.5834375 14.513125 -12.046875 13.84375 C-11.66015625 13.3384375 -11.2734375 12.833125 -10.875 12.3125 C-14.60465139 10.27814469 -16.54405042 9.3125 -20.875 9.3125 Z M-45.875 19.3125 C-47.90935531 23.04215139 -48.875 24.98155042 -48.875 29.3125 C-45.575 29.3125 -42.275 29.3125 -38.875 29.3125 C-38.545 27.9925 -38.215 26.6725 -37.875 25.3125 C-38.98024743 23.52724282 -38.98024743 23.52724282 -40.6875 22.0625 C-41.23019531 21.54171875 -41.77289063 21.0209375 -42.33203125 20.484375 C-43.81752956 19.11089078 -43.81752956 19.11089078 -45.875 19.3125 Z M-9.0625 22.0625 C-9.61292969 22.57296875 -10.16335937 23.0834375 -10.73046875 23.609375 C-11.10816406 24.17140625 -11.48585937 24.7334375 -11.875 25.3125 C-11.545 26.6325 -11.215 27.9525 -10.875 29.3125 C-7.575 29.3125 -4.275 29.3125 -0.875 29.3125 C-1.38212033 25.59361761 -1.99108215 22.57795761 -3.875 19.3125 C-6.55323591 19.3125 -7.15743085 20.23435764 -9.0625 22.0625 Z M-48.875 37.3125 C-48.3955537 41.53162747 -47.70874881 44.10913178 -44.875 47.3125 C-42.565 45.0025 -40.255 42.6925 -37.875 40.3125 C-38.205 39.3225 -38.535 38.3325 -38.875 37.3125 C-42.175 37.3125 -45.475 37.3125 -48.875 37.3125 Z M-10.875 37.3125 C-11.205 38.6325 -11.535 39.9525 -11.875 41.3125 C-9.565 43.2925 -7.255 45.2725 -4.875 47.3125 C-4.215 46.219375 -3.555 45.12625 -2.875 44 C-2.50375 43.38511719 -2.1325 42.77023437 -1.75 42.13671875 C-0.65876001 40.19888074 -0.65876001 40.19888074 -0.875 37.3125 C-4.175 37.3125 -7.475 37.3125 -10.875 37.3125 Z M-32.875 46.3125 C-34.855 48.6225 -36.835 50.9325 -38.875 53.3125 C-35.67163178 56.14624881 -33.09412747 56.8330537 -28.875 57.3125 C-28.875 54.0125 -28.875 50.7125 -28.875 47.3125 C-30.195 46.9825 -31.515 46.6525 -32.875 46.3125 Z M-20.875 46.3125 C-20.875 49.9425 -20.875 53.5725 -20.875 57.3125 C-15.21403127 55.93348538 -15.21403127 55.93348538 -10.875 52.3125 C-11.77849594 51.30058455 -12.69840847 50.30331074 -13.625 49.3125 C-14.13546875 48.755625 -14.6459375 48.19875 -15.171875 47.625 C-17.0446916 45.90555807 -17.0446916 45.90555807 -20.875 46.3125 Z " fill="#000000" transform="translate(106.875,281.6875)"/>
</svg>
