<?xml version="1.0" encoding="UTF-8"?>
<svg version="1.1" xmlns="http://www.w3.org/2000/svg" width="512" height="512">
<path d="M0 0 C2.15962849 0.83266821 4.32126252 1.65994955 6.48339844 2.48608398 C7.23811432 2.77456711 7.9928302 3.06305023 8.77041626 3.36027527 C10.30716535 3.94764412 11.84392884 4.53497531 13.38070679 5.12226868 C17.05560628 6.52823228 20.72737901 7.94120667 24.39208984 9.37353516 C36.84484054 14.2246011 49.12355371 18.04715595 62.29589844 20.41381836 C65.56350677 21.01554577 68.8302997 21.6202463 72.09472656 22.23901367 C73.94864112 22.58439881 75.80651946 22.90973615 77.66894531 23.20581055 C78.44818359 23.3440625 79.22742188 23.48231445 80.03027344 23.62475586 C80.6925293 23.73094238 81.35478516 23.83712891 82.03710938 23.9465332 C85.23761038 25.28850312 86.90147091 27.08227941 89.04589844 29.78881836 C89.61010742 33.16699219 89.61010742 33.16699219 89.54199219 36.99584961 C89.54382311 38.40144873 89.54578022 39.8070477 89.54785156 41.21264648 C89.52067429 43.40470173 89.48349683 45.59628253 89.44067383 47.78808594 C89.12895799 58.87379061 89.12895799 58.87379061 94.59838867 68.21020508 C99.47924416 73.53312827 98.51675645 81.76192013 98.35839844 88.51538086 C97.84207079 98.2782762 93.54110929 106.6030053 86.4675293 113.27832031 C83.09756056 115.38034638 79.58872348 115.92729173 75.73730469 116.61303711 C74.93356918 116.76416458 74.12983368 116.91529205 73.30174255 117.07099915 C71.60567228 117.38772828 69.90862003 117.69923787 68.21069336 118.00585938 C65.61891721 118.47441671 63.03061086 118.95928451 60.44238281 119.44702148 C58.7908686 119.753324 57.13918106 120.05869377 55.48730469 120.36303711 C54.7163295 120.5067424 53.94535431 120.65044769 53.15101624 120.79850769 C49.40780712 121.4697944 45.85188998 121.96076871 42.04589844 121.78881836 C41.89894531 120.84522461 41.75199219 119.90163086 41.60058594 118.92944336 C39.19665698 105.1690224 34.56228634 92.93498149 22.79589844 84.60131836 C11.59961304 77.50401203 0.09950917 75.50231127 -12.95410156 76.78881836 C-26.03638338 79.9113383 -36.38166678 87.90113757 -43.49707031 99.24975586 C-48.33755231 108.70360047 -49.01596735 119.31687938 -48.95410156 129.78881836 C-73.75710229 130.31497153 -98.5601926 130.83671161 -123.36339188 131.35342407 C-134.88406937 131.59352764 -146.40471518 131.83498967 -157.92529297 132.07983398 C-167.98530007 132.29363346 -178.04536054 132.5046966 -188.10548949 132.71268654 C-193.41524063 132.82255391 -198.72495874 132.93364632 -204.03461456 133.04803467 C-229.34521271 133.59232769 -254.63736869 133.9254973 -279.95410156 133.78881836 C-279.93639174 133.15609261 -279.91868193 132.52336685 -279.90043545 131.87146759 C-279.87749448 131.04018089 -279.85455351 130.2088942 -279.83091736 129.35241699 C-279.79661826 128.11715649 -279.79661826 128.11715649 -279.76162624 126.85694122 C-279.4501716 114.30597855 -281.35935003 104.06407043 -288.95410156 93.78881836 C-289.37175781 93.19584961 -289.78941406 92.60288086 -290.21972656 91.99194336 C-296.35802011 84.01921725 -306.00506989 78.26033744 -315.95410156 76.78881836 C-329.32169303 75.49486185 -340.78070611 76.98752818 -351.89160156 85.16381836 C-362.3601003 94.06299918 -368.47032932 105.18861101 -369.80566406 118.93334961 C-370.01114511 122.88615614 -369.98330573 126.83165365 -369.95410156 130.78881836 C-393.27040939 127.91850845 -393.27040939 127.91850845 -403.95410156 123.78881836 C-404.68242187 123.51424805 -405.41074219 123.23967773 -406.16113281 122.95678711 C-409.82943374 120.56719675 -410.6157191 115.76843346 -411.95410156 111.78881836 C-412.36660156 110.59256836 -412.77910156 109.39631836 -413.20410156 108.16381836 C-415.5687594 97.04771655 -414.26318836 87.2519051 -410.76660156 76.60131836 C-410.475354 75.70453369 -410.18410645 74.80774902 -409.8840332 73.88378906 C-407.36857788 66.76779598 -403.97901696 62.45279224 -397.14160156 58.97631836 C-370.24991792 46.26034732 -339.11818547 40.25363962 -310.03613281 34.76147461 C-309.16778809 34.59397705 -308.29944336 34.42647949 -307.40478516 34.25390625 C-305.86920724 33.96248605 -304.33066838 33.68584997 -302.78857422 33.43115234 C-295.32853125 32.05033121 -288.58378403 28.80675139 -281.70410156 25.72631836 C-280.30292749 25.10625288 -278.90155537 24.48663477 -277.5 23.86743164 C-266.68553356 19.07354942 -255.94397736 14.12189562 -245.20410156 9.16381836 C-164.48388815 -28.08080436 -83.92259636 -32.38114062 0 0 Z M-113.95410156 -9.21118164 C-114.79265251 -4.37353492 -115.62874508 0.46452815 -116.46264648 5.30297852 C-116.7461647 6.94599644 -117.0303329 8.58890235 -117.31518555 10.23168945 C-117.72651905 12.6046011 -118.13544717 14.97791716 -118.54394531 17.35131836 C-118.6700267 18.07561035 -118.79610809 18.79990234 -118.92601013 19.54614258 C-119.73804802 24.28192329 -120.38817615 29.01719831 -120.95410156 33.78881836 C-91.60769037 33.13914524 -91.60769037 33.13914524 -62.26660156 32.28881836 C-60.52697144 32.23576538 -60.52697144 32.23576538 -58.75219727 32.18164062 C-53.41190545 31.99815718 -48.22279732 31.69331548 -42.95410156 30.78881836 C-42.44531856 29.22915618 -41.94746688 27.66592595 -41.45410156 26.10131836 C-41.17566406 25.23120117 -40.89722656 24.36108398 -40.61035156 23.46459961 C-38.98886787 16.85319289 -40.84444985 12.9507577 -44.26660156 7.28881836 C-48.35370432 0.86071735 -52.02061199 -2.79287134 -59.51660156 -4.58618164 C-62.98077613 -5.28990797 -66.44809537 -5.7681083 -69.95410156 -6.21118164 C-71.49517578 -6.43717041 -71.49517578 -6.43717041 -73.06738281 -6.66772461 C-86.74146573 -8.66766159 -100.144846 -9.59651907 -113.95410156 -9.21118164 Z M-227.95410156 19.78881836 C-228.61410156 20.77881836 -229.27410156 21.76881836 -229.95410156 22.78881836 C-229.24833984 23.60092773 -229.24833984 23.60092773 -228.52832031 24.42944336 C-226.69187485 27.18183308 -226.27026303 29.28439043 -225.76660156 32.53881836 C-225.60804688 33.52366211 -225.44949219 34.50850586 -225.28613281 35.52319336 C-225.1765625 36.27084961 -225.06699219 37.01850586 -224.95410156 37.78881836 C-194.86479768 37.15028328 -194.86479768 37.15028328 -164.77954102 36.34811401 C-162.81761203 36.29032099 -160.8555836 36.2359353 -158.89355469 36.18164062 C-152.52567449 35.98469143 -146.27363754 35.6033665 -139.95410156 34.78881836 C-135.70940745 20.25168012 -132.26908979 5.56291917 -128.95410156 -9.21118164 C-160.984207 -9.9296846 -202.79093458 -1.54047554 -227.95410156 19.78881836 Z M-39.95410156 2.78881836 C-37.91528442 7.3620767 -34.85840339 11.28339912 -31.87695312 15.27368164 C-29.76854803 18.12173483 -27.99838905 20.69232206 -26.51269531 23.92944336 C-24.93285549 27.23060119 -24.05213561 28.77486943 -20.95410156 30.78881836 C-13.7070645 32.00943286 -6.24087374 31.3947288 1.04589844 30.78881836 C0.80576229 26.70650381 0.57535678 24.40809925 -2.12280273 21.25219727 C-5.01227324 18.73820594 -7.61481507 17.19789102 -11.06738281 15.56225586 C-12.23333984 15.00538086 -13.39929688 14.44850586 -14.60058594 13.87475586 C-15.50490356 13.45274902 -15.50490356 13.45274902 -16.42749023 13.0222168 C-18.25611752 12.16871175 -20.07719397 11.30061502 -21.89746094 10.42944336 C-27.83805137 7.61461814 -33.74896996 4.96254148 -39.95410156 2.78881836 Z " fill="#000000" transform="translate(413.9541015625,187.211181640625)"/>
<path d="M0 0 C3.38524178 3.28777801 5.78505797 6.84568299 8.03515625 10.9765625 C8.44894531 11.71390625 8.86273438 12.45125 9.2890625 13.2109375 C13.60493014 22.17350584 13.54907655 33.39747155 10.53515625 42.7890625 C5.94515447 53.42443248 -0.59889599 60.77797725 -10.96484375 65.9765625 C-21.21311498 69.93203561 -31.90197414 69.75568663 -42.08203125 65.75 C-53.11630503 60.60434115 -59.44973741 53.81373748 -63.9375 42.53125 C-67.33014673 32.46376806 -66.54328418 22.93162234 -62.96484375 12.9765625 C-61.27624986 9.68124595 -59.30126161 6.84323123 -56.96484375 3.9765625 C-56.19333984 3.01943359 -56.19333984 3.01943359 -55.40625 2.04296875 C-40.98030077 -14.0435214 -15.81248033 -13.10734701 0 0 Z M-22.96484375 5.9765625 C-22.96484375 9.2765625 -22.96484375 12.5765625 -22.96484375 15.9765625 C-21.64484375 16.3065625 -20.32484375 16.6365625 -18.96484375 16.9765625 C-16.98484375 14.6665625 -15.00484375 12.3565625 -12.96484375 9.9765625 C-16.29893845 7.78558598 -19.00663516 6.54202087 -22.96484375 5.9765625 Z M-36.02734375 7.9765625 C-37.12755859 8.5334375 -37.12755859 8.5334375 -38.25 9.1015625 C-39.09884766 9.5346875 -39.09884766 9.5346875 -39.96484375 9.9765625 C-39.03831674 11.15196246 -38.09820988 12.31666827 -37.15234375 13.4765625 C-36.63027344 14.12625 -36.10820312 14.7759375 -35.5703125 15.4453125 C-33.97279542 17.32165378 -33.97279542 17.32165378 -30.96484375 16.9765625 C-30.96484375 13.3465625 -30.96484375 9.7165625 -30.96484375 5.9765625 C-32.80915787 5.9765625 -34.41499774 7.1575931 -36.02734375 7.9765625 Z M-45.96484375 15.9765625 C-48.85993643 19.11291291 -49.48855764 21.7852447 -49.96484375 25.9765625 C-46.66484375 25.9765625 -43.36484375 25.9765625 -39.96484375 25.9765625 C-39.63484375 24.9865625 -39.30484375 23.9965625 -38.96484375 22.9765625 C-40.12885492 21.0675977 -40.12885492 21.0675977 -41.83984375 19.2890625 C-42.39414062 18.66644531 -42.9484375 18.04382813 -43.51953125 17.40234375 C-44.74512437 15.85951579 -44.74512437 15.85951579 -45.96484375 15.9765625 Z M-7.96484375 15.9765625 C-8.9767592 16.88005844 -9.97403301 17.79997097 -10.96484375 18.7265625 C-11.52171875 19.23703125 -12.07859375 19.7475 -12.65234375 20.2734375 C-14.37178568 22.1462541 -14.37178568 22.1462541 -13.96484375 25.9765625 C-10.66484375 25.9765625 -7.36484375 25.9765625 -3.96484375 25.9765625 C-4.44429005 21.75743503 -5.13109494 19.17993072 -7.96484375 15.9765625 Z M-49.96484375 32.9765625 C-49.5328674 37.7283023 -48.6371508 39.89656304 -44.96484375 42.9765625 C-43.92952649 42.07628662 -42.9119021 41.15563215 -41.90234375 40.2265625 C-41.04962891 39.46085937 -41.04962891 39.46085937 -40.1796875 38.6796875 C-39.57833984 37.83664062 -39.57833984 37.83664062 -38.96484375 36.9765625 C-39.29484375 35.6565625 -39.62484375 34.3365625 -39.96484375 32.9765625 C-43.26484375 32.9765625 -46.56484375 32.9765625 -49.96484375 32.9765625 Z M-13.96484375 32.9765625 C-13.8100258 35.68587669 -13.48312294 37.44240289 -11.5625 39.421875 C-10.06712667 40.65335892 -8.51855135 41.8195462 -6.96484375 42.9765625 C-4.93048844 39.24691111 -3.96484375 37.30751208 -3.96484375 32.9765625 C-7.26484375 32.9765625 -10.56484375 32.9765625 -13.96484375 32.9765625 Z M-35.5703125 43.5078125 C-36.09238281 44.1575 -36.61445313 44.8071875 -37.15234375 45.4765625 C-37.68214844 46.12625 -38.21195312 46.7759375 -38.7578125 47.4453125 C-39.15613281 47.950625 -39.55445313 48.4559375 -39.96484375 48.9765625 C-38.65357114 49.6456401 -37.34078925 50.31176056 -36.02734375 50.9765625 C-35.29644531 51.3478125 -34.56554687 51.7190625 -33.8125 52.1015625 C-32.15494303 53.04789653 -32.15494303 53.04789653 -30.96484375 52.9765625 C-30.96484375 49.3465625 -30.96484375 45.7165625 -30.96484375 41.9765625 C-33.97279542 41.63147122 -33.97279542 41.63147122 -35.5703125 43.5078125 Z M-21.96484375 41.9765625 C-23.22433424 43.01062923 -23.22433424 43.01062923 -23.0625 45.26171875 C-23.05089844 46.17824219 -23.03929687 47.09476562 -23.02734375 48.0390625 C-23.01832031 48.95816406 -23.00929688 49.87726563 -23 50.82421875 C-22.98839844 51.53449219 -22.97679687 52.24476563 -22.96484375 52.9765625 C-20.32484375 51.9865625 -17.68484375 50.9965625 -14.96484375 49.9765625 C-14.54662406 46.01419326 -14.54662406 46.01419326 -16.77734375 43.7265625 C-18.88838368 41.66421498 -18.88838368 41.66421498 -21.96484375 41.9765625 Z " fill="#000000" transform="translate(436.96484375,279.0234375)"/>
<path d="M0 0 C7.25708175 6.93892159 12.43470898 15.75383431 13.0234375 25.890625 C13.29520795 38.50874987 11.33446095 47.79729556 2.890625 57.6484375 C-4.72298711 65.34304548 -13.99359629 69.09134911 -24.7109375 69.87109375 C-36.6135399 69.88896553 -46.67490654 65.26451278 -55.26953125 57.171875 C-62.91935966 48.5713031 -65.68052175 38.80119585 -65.25 27.5 C-64.03450431 15.87767601 -59.25398791 6.46580998 -50.3125 -1.125 C-34.51327149 -11.38811071 -15.16678093 -12.15680321 0 0 Z M-22.3125 6.875 C-22.3125 10.175 -22.3125 13.475 -22.3125 16.875 C-20.9925 17.205 -19.6725 17.535 -18.3125 17.875 C-16.3325 15.565 -14.3525 13.255 -12.3125 10.875 C-15.6465947 8.68402348 -18.35429141 7.44045837 -22.3125 6.875 Z M-34.375 8.375 C-35.47521484 8.79265625 -35.47521484 8.79265625 -36.59765625 9.21875 C-37.16355469 9.4353125 -37.72945312 9.651875 -38.3125 9.875 C-38.6291189 13.08021595 -38.6291189 13.08021595 -36.0625 15.625 C-34.70125 16.73875 -34.70125 16.73875 -33.3125 17.875 C-31.9925 17.545 -30.6725 17.215 -29.3125 16.875 C-29.3125 13.575 -29.3125 10.275 -29.3125 6.875 C-31.10131237 6.875 -32.7208068 7.74483116 -34.375 8.375 Z M-45.3125 16.875 C-45.9725 18.15375 -46.6325 19.4325 -47.3125 20.75 C-47.68375 21.46929687 -48.055 22.18859375 -48.4375 22.9296875 C-49.44923746 24.82348977 -49.44923746 24.82348977 -49.3125 26.875 C-46.0125 26.875 -42.7125 26.875 -39.3125 26.875 C-38.9825 25.555 -38.6525 24.235 -38.3125 22.875 C-40.6225 20.895 -42.9325 18.915 -45.3125 16.875 Z M-7.3125 16.875 C-8.34781726 17.77527588 -9.36544165 18.69593035 -10.375 19.625 C-10.94347656 20.13546875 -11.51195312 20.6459375 -12.09765625 21.171875 C-12.49855469 21.73390625 -12.89945313 22.2959375 -13.3125 22.875 C-12.9825 24.195 -12.6525 25.515 -12.3125 26.875 C-9.0125 26.875 -5.7125 26.875 -2.3125 26.875 C-3.69151462 21.21403127 -3.69151462 21.21403127 -7.3125 16.875 Z M-49.3125 33.875 C-48.3225 36.845 -47.3325 39.815 -46.3125 42.875 C-43.10728405 43.1916189 -43.10728405 43.1916189 -40.5625 40.625 C-39.44875 39.26375 -39.44875 39.26375 -38.3125 37.875 C-38.6425 36.555 -38.9725 35.235 -39.3125 33.875 C-42.6125 33.875 -45.9125 33.875 -49.3125 33.875 Z M-12.3125 33.875 C-12.6425 35.195 -12.9725 36.515 -13.3125 37.875 C-11.0025 39.855 -8.6925 41.835 -6.3125 43.875 C-4.12152348 40.5409053 -2.87795837 37.83320859 -2.3125 33.875 C-5.6125 33.875 -8.9125 33.875 -12.3125 33.875 Z M-33.3125 42.875 C-35.2925 45.185 -37.2725 47.495 -39.3125 49.875 C-35.9784053 52.06597652 -33.27070859 53.30954163 -29.3125 53.875 C-29.3125 50.575 -29.3125 47.275 -29.3125 43.875 C-30.6325 43.545 -31.9525 43.215 -33.3125 42.875 Z M-21.3125 42.875 C-22.57199049 43.90906673 -22.57199049 43.90906673 -22.41015625 46.16015625 C-22.39855469 47.07667969 -22.38695312 47.99320312 -22.375 48.9375 C-22.36597656 49.85660156 -22.35695312 50.77570313 -22.34765625 51.72265625 C-22.33605469 52.43292969 -22.32445312 53.14320313 -22.3125 53.875 C-16.65153127 52.49598538 -16.65153127 52.49598538 -12.3125 48.875 C-13.24036789 47.86605628 -14.18018433 46.86809093 -15.125 45.875 C-15.64707031 45.318125 -16.16914062 44.76125 -16.70703125 44.1875 C-18.35398967 42.558535 -18.35398967 42.558535 -21.3125 42.875 Z " fill="#000000" transform="translate(115.3125,278.125)"/>
</svg>
