<?xml version="1.0" standalone="no"?>
<!DOCTYPE svg PUBLIC "-//W3C//DTD SVG 20010904//EN"
 "http://www.w3.org/TR/2001/REC-SVG-20010904/DTD/svg10.dtd">
<svg version="1.0" xmlns="http://www.w3.org/2000/svg"
 width="512.000000pt" height="512.000000pt" viewBox="0 0 512.000000 512.000000"
 preserveAspectRatio="xMidYMid meet">

<g transform="translate(0.000000,512.000000) scale(0.100000,-0.100000)"
fill="#000000" stroke="none">
<path d="M2511 5106 c-87 -48 -50 -186 50 -186 28 0 77 27 89 49 5 11 10 34
10 51 0 42 -15 67 -50 85 -35 18 -67 19 -99 1z"/>
<path d="M2090 5069 c-156 -41 -209 -58 -310 -96 -329 -126 -636 -343 -862
-612 -270 -321 -452 -730 -498 -1121 -6 -52 -13 -114 -16 -137 -4 -36 -9 -43
-27 -43 -32 0 -131 -82 -181 -149 -55 -76 -75 -127 -136 -350 -78 -285 -69
-375 54 -565 l58 -88 -86 -207 c-48 -113 -86 -214 -86 -224 0 -27 28 -75 49
-87 34 -18 88 -12 114 13 15 13 56 96 103 210 42 103 82 187 88 187 6 0 103
-20 216 -44 187 -39 205 -45 203 -63 -1 -11 -86 -372 -188 -801 -102 -429
-185 -787 -185 -796 0 -47 51 -96 100 -96 34 0 76 27 88 57 7 15 88 349 181
741 93 392 171 715 173 717 2 2 46 -37 98 -88 679 -661 1676 -815 2510 -386
191 98 438 282 574 428 26 29 50 50 53 47 3 -2 81 -326 174 -718 93 -392 174
-726 181 -741 12 -30 54 -57 88 -57 49 0 100 49 100 96 0 9 -83 367 -185 796
-102 429 -187 790 -188 801 -2 19 15 24 203 63 113 24 210 43 216 44 6 0 46
-84 88 -187 47 -114 88 -197 103 -210 26 -25 80 -31 114 -13 21 12 49 60 49
87 0 10 -38 111 -86 224 l-85 206 60 95 c121 192 128 275 51 559 -61 223 -81
274 -136 350 -50 67 -149 149 -181 149 -18 0 -23 7 -27 43 -3 23 -10 85 -16
137 -25 211 -101 463 -200 665 -242 493 -652 871 -1162 1070 -115 45 -331 105
-376 105 -62 0 -110 -59 -97 -118 10 -49 44 -71 151 -97 818 -199 1414 -887
1494 -1725 6 -63 10 -149 8 -190 l-3 -75 -95 -52 c-52 -28 -97 -52 -100 -52
-3 -1 -5 86 -6 192 0 265 -40 467 -135 682 -244 556 -719 936 -1307 1047 -168
32 -456 32 -625 0 -243 -46 -504 -157 -707 -300 -122 -86 -326 -290 -412 -412
-145 -204 -254 -462 -300 -708 -18 -94 -22 -154 -23 -309 0 -106 -2 -193 -5
-192 -3 0 -48 24 -100 52 l-95 52 -3 75 c-2 41 2 127 8 190 57 594 372 1122
870 1454 175 118 459 239 645 276 33 7 72 19 87 28 85 49 49 183 -49 181 -21
0 -54 -5 -73 -10z m672 -564 c498 -66 923 -358 1171 -805 38 -69 117 -260 117
-284 0 -17 57 -29 -550 118 -559 135 -687 156 -940 156 -258 0 -374 -20 -999
-171 -272 -65 -495 -119 -497 -119 -2 0 8 33 22 73 250 699 947 1128 1676
1032z m133 -1040 c55 -9 210 -42 345 -75 135 -32 380 -91 545 -130 165 -40
306 -77 313 -84 16 -15 28 -235 18 -329 l-8 -67 -441 0 c-488 0 -526 -4 -638
-61 -83 -41 -186 -144 -228 -227 -58 -115 -61 -142 -61 -633 l0 -446 -46 -7
c-60 -8 -208 -8 -268 0 l-46 7 0 446 c0 491 -3 518 -61 633 -46 91 -148 190
-241 232 -40 19 -100 39 -132 45 -37 7 -224 11 -497 11 l-437 0 -8 67 c-7 65
1 322 11 331 2 2 253 65 557 138 485 117 653 152 813 168 82 8 414 -4 510 -19z
m-2292 -815 c174 -94 198 -104 255 -108 44 -3 76 1 107 12 48 19 76 12 95 -24
5 -10 10 -83 10 -162 0 -220 -24 -289 -143 -406 l-64 -63 -239 50 c-131 28
-248 53 -259 56 -21 4 -123 153 -144 208 -22 58 -12 138 39 320 50 177 68 226
98 260 15 17 17 16 34 -11 13 -21 74 -59 211 -132z m4188 99 c10 -21 41 -118
69 -216 51 -182 61 -262 39 -320 -17 -46 -122 -203 -138 -207 -9 -3 -126 -28
-261 -56 l-245 -52 -76 79 c-109 113 -121 149 -127 364 -3 115 0 173 8 188 18
34 53 43 97 25 25 -11 58 -15 103 -12 60 3 78 11 258 108 137 74 198 112 210
132 19 32 33 25 63 -33z m-2799 -207 c73 -36 123 -86 160 -161 23 -46 23 -49
26 -489 l3 -444 -33 7 c-49 11 -215 73 -281 107 -221 111 -445 302 -571 486
l-46 67 11 60 c6 34 9 133 7 233 l-3 173 330 -3 330 -3 67 -33z m1860 -135
c-2 -99 1 -198 7 -232 l11 -60 -46 -67 c-126 -184 -350 -375 -571 -486 -66
-34 -232 -96 -281 -107 l-33 -7 3 444 3 443 28 55 c33 64 57 92 113 130 78 54
110 59 454 59 l315 1 -3 -173z m-2652 -562 c71 -92 251 -257 365 -334 206
-141 439 -237 683 -283 168 -32 456 -32 624 0 354 67 663 228 914 477 67 66
135 138 152 160 l30 40 70 -75 69 -75 -41 -49 c-367 -440 -936 -706 -1508
-706 -556 1 -1111 254 -1477 674 l-69 80 66 73 c37 40 70 73 73 73 4 0 26 -25
49 -55z"/>
<path d="M2459 3287 c-84 -32 -148 -88 -191 -170 -19 -35 -23 -58 -23 -137 0
-86 3 -100 29 -148 34 -60 85 -111 148 -144 36 -19 58 -23 138 -23 80 0 102 4
138 23 63 33 114 84 148 144 26 48 29 62 29 148 0 106 -15 147 -80 219 -57 63
-127 94 -220 98 -50 2 -93 -2 -116 -10z m161 -202 c16 -9 36 -29 45 -45 31
-60 10 -137 -45 -165 -84 -43 -180 13 -180 105 0 92 96 148 180 105z"/>
</g>
</svg>
