<?xml version="1.0" encoding="UTF-8"?>
<svg version="1.1" xmlns="http://www.w3.org/2000/svg" width="512" height="512">
<path d="M0 0 C0.82822266 0.59385498 1.65644531 1.18770996 2.50976562 1.79956055 C4.03809066 2.91003302 5.55163538 4.04132517 7.04492188 5.19848633 C13.2943096 9.75617462 19.19277366 10.50380932 26.7734375 11.28515625 C28.1506935 11.45292645 29.52747299 11.62464411 30.90380859 11.79980469 C33.93680978 12.18576838 36.97059475 12.56358807 40.00561523 12.93334961 C128.04333149 23.71577055 128.04333149 23.71577055 141.7734375 37.28515625 C142.74853439 39.82158653 143.41088681 41.97547526 143.9609375 44.59765625 C144.20118652 45.65400269 144.20118652 45.65400269 144.44628906 46.73168945 C148.21295742 63.90608616 151.27682187 83.4598624 142.1875 99.41015625 C139.99123369 102.32233257 138.01796667 104.01523353 134.4140625 104.796875 C133.62515625 104.85488281 132.83625 104.91289062 132.0234375 104.97265625 C130.82460938 105.07126953 130.82460938 105.07126953 129.6015625 105.171875 C128.69664062 105.22794922 128.69664062 105.22794922 127.7734375 105.28515625 C127.4021875 104.15078125 127.0309375 103.01640625 126.6484375 101.84765625 C126.02441304 99.99316103 125.39921781 98.13905971 124.7734375 96.28515625 C124.56412598 95.6523877 124.35481445 95.01961914 124.13916016 94.36767578 C117.31630653 72.65981156 117.31630653 72.65981156 102.0234375 56.91015625 C100.62286659 56.32813532 99.20445987 55.78767213 97.7734375 55.28515625 C97.01933594 55.00027344 96.26523437 54.71539062 95.48828125 54.421875 C82.70518273 50.2530438 65.66245884 49.26004947 53.10546875 54.37109375 C39.25736048 61.61987659 33.49132939 77.42635903 28.984375 91.4765625 C27.73700055 95.95419488 26.98712974 100.51040211 26.19775391 105.08569336 C25.99132011 106.26938129 25.99132011 106.26938129 25.78071594 107.47698212 C25.44335411 109.41276159 25.10817713 111.34892162 24.7734375 113.28515625 C-23.23267937 113.5392712 -71.2155077 113.28145256 -119.21519852 112.41542816 C-122.96131114 112.34793105 -126.70744494 112.28171892 -130.45358276 112.21563721 C-136.4196998 112.10962752 -142.385715 111.99902287 -148.35167503 111.88452339 C-150.54767402 111.84254779 -152.7436894 111.80141892 -154.93972206 111.76124382 C-168.05423394 111.51855085 -181.13292152 111.07142038 -194.2265625 110.28515625 C-194.42661896 109.56333664 -194.62667542 108.84151703 -194.83279419 108.0978241 C-201.85238594 78.60987551 -201.85238594 78.60987551 -220.6015625 56.16015625 C-222.86736859 55.1079995 -222.86736859 55.1079995 -225.2265625 54.28515625 C-226.01160156 53.98351562 -226.79664063 53.681875 -227.60546875 53.37109375 C-240.39837498 49.19142668 -257.39630369 48.38670839 -269.96484375 53.37109375 C-281.6332119 59.49742968 -288.03348767 72.41291005 -291.95019531 84.52246094 C-294.12363165 91.68980107 -296.13309781 98.86605713 -297.2265625 106.28515625 C-336.39576726 102.36417024 -336.39576726 102.36417024 -346.2265625 96.28515625 C-347.87109375 93.9453125 -347.87109375 93.9453125 -349.0390625 91.34765625 C-349.63654297 90.06568359 -349.63654297 90.06568359 -350.24609375 88.7578125 C-353.75771356 79.90181512 -353.03885562 70.69644858 -349.58984375 61.9296875 C-348.12293456 59.08413587 -346.36158048 56.83341813 -344.3515625 54.34765625 C-342.26978202 51.5321697 -341.22770457 50.08346471 -341.22265625 46.5546875 C-341.61246036 44.5626541 -342.04195426 42.57811118 -342.50390625 40.6015625 C-345.6183698 26.30870005 -342.13713719 16.59365761 -335.2265625 4.28515625 C-334.75541016 3.43163574 -334.28425781 2.57811523 -333.79882812 1.69873047 C-327.90383485 -8.94886032 -321.71974641 -19.42123749 -315.2265625 -29.71484375 C-315.84015625 -30.00488281 -316.45375 -30.29492188 -317.0859375 -30.59375 C-319.67802702 -31.95128594 -321.33714512 -33.48803041 -323.2265625 -35.71484375 C-323.2265625 -36.70484375 -323.2265625 -37.69484375 -323.2265625 -38.71484375 C-320.35078627 -39.67343583 -318.14137091 -39.95751096 -315.13647461 -40.16381836 C-314.08948395 -40.23743591 -313.04249329 -40.31105347 -311.96377563 -40.38690186 C-310.82201874 -40.46289612 -309.68026184 -40.53889038 -308.50390625 -40.6171875 C-307.31219818 -40.69922424 -306.12049011 -40.78126099 -304.89266968 -40.86578369 C-301.65567503 -41.08693913 -298.41844969 -41.30411736 -295.18100357 -41.51855087 C-293.16279052 -41.65242813 -291.14466561 -41.78757129 -289.1265564 -41.92300415 C-266.57020882 -43.43369015 -244.01086786 -44.72708159 -221.42126465 -45.62628174 C-219.32917834 -45.71070293 -217.23733665 -45.79958384 -215.14550781 -45.89013672 C-135.76342168 -49.25683229 -66.74357803 -48.18393443 0 0 Z M-202.2265625 -33.71484375 C-204.86129506 -26.0281872 -206.95385144 -18.28820329 -208.9140625 -10.40234375 C-209.39456055 -8.51032227 -209.39456055 -8.51032227 -209.88476562 -6.58007812 C-210.18705078 -5.37029297 -210.48933594 -4.16050781 -210.80078125 -2.9140625 C-211.07494873 -1.81924561 -211.34911621 -0.72442871 -211.6315918 0.40356445 C-212.36136766 3.44765578 -212.36136766 3.44765578 -212.2265625 7.28515625 C-196.02228405 8.66666444 -179.8005862 9.72736967 -163.5675354 10.7046814 C-161.32066443 10.84032975 -159.0738958 10.97768535 -156.82723999 11.11685181 C-143.94463346 11.91176124 -131.13512632 12.50471605 -118.2265625 12.28515625 C-118.34645436 7.94746092 -118.47077239 3.60991967 -118.59887695 -0.72753906 C-118.64170705 -2.19755771 -118.68340831 -3.66760976 -118.72387695 -5.13769531 C-118.96935067 -14.02323788 -119.36158315 -22.86339858 -120.2265625 -31.71484375 C-124.32152457 -32.82704913 -128.36345227 -33.06868097 -132.5859375 -33.2734375 C-133.8811734 -33.33681557 -133.8811734 -33.33681557 -135.20257568 -33.401474 C-148.28579103 -33.96683582 -161.38445283 -33.8201126 -174.4765625 -33.77734375 C-177.17968604 -33.77173359 -179.88281118 -33.76768511 -182.5859375 -33.76367188 C-189.13283281 -33.75278242 -195.67969323 -33.73615379 -202.2265625 -33.71484375 Z M-240.79907227 -33.02514648 C-242.53322232 -32.94370895 -244.26760923 -32.8671584 -246.00219727 -32.7956543 C-262.94607147 -32.09549421 -277.76937712 -31.28287813 -290.6015625 -19.08984375 C-291.15884033 -18.56712891 -291.71611816 -18.04441406 -292.2902832 -17.50585938 C-301.52946714 -9.07449642 -301.52946714 -9.07449642 -308.2265625 1.28515625 C-304.98341031 2.36620698 -302.30642487 2.56222501 -298.89428711 2.76586914 C-296.9309568 2.88588036 -296.9309568 2.88588036 -294.92796326 3.00831604 C-293.49495433 3.09165498 -292.06193505 3.17481594 -290.62890625 3.2578125 C-289.15497746 3.34579266 -287.6810651 3.43404858 -286.20716858 3.52256775 C-283.11295019 3.70749731 -280.01858125 3.88958014 -276.92407227 4.06958008 C-272.98227909 4.29901748 -269.04088717 4.53464722 -265.09958553 4.77236271 C-262.05142808 4.95563901 -259.00310066 5.13594976 -255.95471382 5.31536674 C-254.50319198 5.40107124 -253.05171721 5.48757706 -251.60029411 5.57493782 C-243.80486081 6.04212537 -236.03890196 6.42566726 -228.2265625 6.28515625 C-226.37126698 0.91132769 -224.51995496 -4.46384991 -222.67236328 -9.84033203 C-222.04293072 -11.67013832 -221.41240049 -13.49956739 -220.78076172 -15.32861328 C-219.87440545 -17.95377391 -218.97197192 -20.58025429 -218.0703125 -23.20703125 C-217.78595337 -24.02791229 -217.50159424 -24.84879333 -217.20861816 -25.69454956 C-215.75712177 -29.61386662 -215.75712177 -29.61386662 -215.2265625 -33.71484375 C-223.77034595 -33.75981382 -232.2666887 -33.43587303 -240.79907227 -33.02514648 Z M-104.2265625 -30.71484375 C-103.67715265 -21.96454463 -102.23621426 -13.4472107 -100.64257812 -4.84082031 C-100.22112487 -2.56042181 -99.80933335 -0.27841572 -99.3984375 2.00390625 C-99.13337605 3.45453017 -98.86777177 4.90505503 -98.6015625 6.35546875 C-98.47861816 7.03763458 -98.35567383 7.71980042 -98.22900391 8.42263794 C-97.83384298 11.6317153 -97.83384298 11.6317153 -96.2265625 14.28515625 C-94.76455678 14.46101889 -93.2947821 14.57295238 -91.82470703 14.65820312 C-90.88507111 14.71496216 -89.94543518 14.77172119 -88.97732544 14.8302002 C-87.94840179 14.88752319 -86.91947815 14.94484619 -85.859375 15.00390625 C-84.7960495 15.06670776 -83.732724 15.12950928 -82.63717651 15.19421387 C-79.2088775 15.39556383 -75.7802402 15.59037234 -72.3515625 15.78515625 C-70.10804864 15.91625178 -67.8645587 16.04775749 -65.62109375 16.1796875 C-59.15678725 16.5579297 -52.6917978 16.92318826 -46.2265625 17.28515625 C-45.28634247 17.33848114 -44.34612244 17.39180603 -43.37741089 17.44674683 C-40.80772839 17.59200326 -38.23789408 17.73411312 -35.66796875 17.875 C-34.93937653 17.91641113 -34.2107843 17.95782227 -33.46011353 18.00048828 C-26.04921037 18.39794936 -18.64615507 18.37726154 -11.2265625 18.28515625 C-32.67385621 -7.56158233 -63.90045348 -25.39855407 -97.2265625 -30.71484375 C-99.59179835 -30.84953456 -101.85555393 -30.81614185 -104.2265625 -30.71484375 Z " fill="#000000" transform="translate(359.2265625,207.71484375)"/>
<path d="M0 0 C10.07700696 9.49388902 14.93823766 20.43653094 15.375 34.1875 C15.15136904 47.42119085 10.9068149 57.58398703 1.93359375 67.21875 C-6.97230845 75.75821973 -17.9047851 79.91104924 -30.1953125 80.03125 C-43.67383274 79.39396772 -54.9610102 74.59459293 -64.25 64.75 C-73.71687047 53.52930692 -76.14431767 41.39812358 -75 27 C-72.57954449 13.98461646 -65.7386465 3.70231993 -55 -4 C-37.36212805 -14.28439715 -15.88481265 -13.0867539 0 0 Z M-49.59375 15.53125 C-55.60476133 22.0137132 -57.63590517 28.45227725 -57.34375 37.265625 C-56.34642646 45.19888045 -51.95587155 51.79744027 -46 57 C-39.46886207 61.20032291 -31.84259055 63.02803598 -24.203125 61.40625 C-16.0227174 58.78490392 -9.55379421 54.50451446 -5.5625 46.75 C-2.63476816 40.18557884 -1.77759418 33.60243154 -3.6484375 26.55859375 C-6.77108282 18.88542683 -12.04040431 12.03629001 -19.76953125 8.6875 C-30.85607094 5.27028286 -41.15247819 7.42100846 -49.59375 15.53125 Z " fill="#000000" transform="translate(143,275)"/>
<path d="M0 0 C8.59940278 8.10178815 14.33026485 18.06441722 15.3359375 29.98046875 C15.6565321 44.83468541 12.24056259 56.13633249 1.93359375 67.22265625 C-6.98111636 75.75462389 -17.90119517 79.91101413 -30.1953125 80.03125 C-43.94747851 79.38102939 -55.36221824 74.29093299 -64.8125 64.1875 C-73.8827909 53.12773491 -76.112185 40.99382141 -75 27 C-72.57954449 13.98461646 -65.7386465 3.70231993 -55 -4 C-37.36212805 -14.28439715 -15.88481265 -13.0867539 0 0 Z M-49.59375 15.53125 C-55.60476133 22.0137132 -57.63590517 28.45227725 -57.34375 37.265625 C-56.34642646 45.19888045 -51.95587155 51.79744027 -46 57 C-39.67226911 61.06950722 -32.02519481 62.98882866 -24.578125 61.5234375 C-16.03659733 58.91511865 -9.37511914 53.96650275 -4.95703125 46.15625 C-1.79844526 38.9196774 -1.96030172 31.13037271 -4.5625 23.75 C-7.70109911 16.81204407 -12.81389996 11.83049151 -19.76953125 8.72265625 C-30.78486507 5.15376526 -41.21287613 7.47903785 -49.59375 15.53125 Z " fill="#000000" transform="translate(466,275)"/>
</svg>
