<?xml version="1.0" encoding="UTF-8"?>
<svg version="1.1" xmlns="http://www.w3.org/2000/svg" width="512" height="512">
<path d="M0 0 C1.36841789 -0.0049926 1.36841789 -0.0049926 2.76448059 -0.01008606 C4.68648784 -0.01512348 6.60850374 -0.01749538 8.53051758 -0.01733398 C11.43130357 -0.01951193 14.33170339 -0.03767846 17.23242188 -0.05664062 C19.11327997 -0.05957713 20.99413985 -0.06156021 22.875 -0.0625 C23.72337936 -0.06968552 24.57175873 -0.07687103 25.44584656 -0.08427429 C30.17850496 -0.06681736 34.63545047 0.35038081 39.29936218 1.16995239 C45.94385671 2.21695802 52.37282381 2.43212731 59.08837891 2.37915039 C60.29892441 2.37783615 61.50946991 2.37652191 62.75669861 2.37516785 C66.04597802 2.36983088 69.33507582 2.35567641 72.6243062 2.33782506 C76.12618015 2.32132985 79.62806853 2.31744971 83.12997437 2.31236267 C90.54748594 2.29973325 97.96491691 2.27472724 105.38238525 2.24700928 C118.5452507 2.19800832 131.70816138 2.1649562 144.87109375 2.140625 C145.93182122 2.13850553 145.93182122 2.13850553 147.01397753 2.13634324 C165.41590991 2.10050134 183.80945174 2.16960275 202.20703125 2.62109375 C203.06901752 2.64219271 203.9310038 2.66329166 204.81911087 2.68502998 C241.21550621 3.61007826 274.45614898 9.00950679 306.89453125 26.04296875 C308.71952126 26.99093147 310.5450495 27.93785868 312.37109375 28.88378906 C316.00334624 30.76737591 319.63253521 32.65664854 323.25878906 34.55175781 C327.5766396 36.80802214 331.90087916 39.05151323 336.23046875 41.28515625 C336.82919296 41.59411331 337.42791718 41.90307037 338.04478455 42.22138977 C338.92306664 42.67459846 338.92306664 42.67459846 339.8190918 43.13696289 C343.25606452 44.91101766 346.69082458 46.6892871 350.125 48.46875 C357.55834356 52.31892669 364.99552721 56.16162632 372.43579102 59.99841309 C373.83149324 60.71833252 375.2270112 61.43860935 376.62231445 62.15930176 C379.87680222 63.84018005 383.13367435 65.51600207 386.39624023 67.18115234 C388.99115388 68.50601462 391.57122737 69.85533805 394.14477539 71.22119141 C403.37449065 76.06015443 412.73269703 79.6518696 422.63580322 82.87084961 C426.80920041 84.23077793 430.96688046 85.6371449 435.125 87.04296875 C436.33041443 87.44980896 436.33041443 87.44980896 437.56018066 87.86486816 C443.74161813 89.96229605 449.8597624 92.17533342 455.89453125 94.66796875 C456.62003174 94.95736328 457.34553223 95.24675781 458.09301758 95.54492188 C462.34867714 97.36749226 464.89648454 99.17592756 467.26953125 103.16796875 C468.22742777 105.9595944 468.8285949 108.77431157 469.39453125 111.66796875 C469.55050781 112.395 469.70648438 113.12203125 469.8671875 113.87109375 C470.37331018 116.29713635 470.82052671 118.73074628 471.26953125 121.16796875 C471.54531006 122.44740356 471.54531006 122.44740356 471.82666016 123.75268555 C474.10375542 135.69283889 473.48294185 147.88034431 473.39453125 159.98046875 C473.35328125 167.96234375 473.31203125 175.94421875 473.26953125 184.16796875 C453.79953125 184.16796875 434.32953125 184.16796875 414.26953125 184.16796875 C413.60953125 180.53796875 412.94953125 176.90796875 412.26953125 173.16796875 C407.25934015 159.82758039 399.60765516 152.57589679 387.15625 146.0625 C377.18019039 141.93647923 363.82562794 143.02482064 353.9375 146.81640625 C349.19181579 149.22051567 345.02948993 152.40801007 341.26953125 156.16796875 C338.65264684 156.26306434 336.06224225 156.29352875 333.44506836 156.28149414 C332.62562241 156.28164017 331.80617645 156.28178619 330.9618988 156.28193665 C328.24019772 156.28123727 325.5185642 156.27344376 322.796875 156.265625 C320.91500384 156.26376091 319.03313219 156.26233696 317.15126038 156.26133728 C312.18804596 156.25751142 307.22486061 156.24768056 302.26165771 156.2366333 C297.20113519 156.22642065 292.14060798 156.22183997 287.08007812 156.21679688 C277.14321637 156.20605835 267.20637622 156.18898111 257.26953125 156.16796875 C257.26953125 156.82796875 257.26953125 157.48796875 257.26953125 158.16796875 C283.99953125 158.16796875 310.72953125 158.16796875 338.26953125 158.16796875 C336.94953125 160.47796875 335.62953125 162.78796875 334.26953125 165.16796875 C306.54953125 165.16796875 278.82953125 165.16796875 250.26953125 165.16796875 C250.26953125 165.82796875 250.26953125 166.48796875 250.26953125 167.16796875 C277.32953125 167.16796875 304.38953125 167.16796875 332.26953125 167.16796875 C330.94953125 172.77796875 329.62953125 178.38796875 328.26953125 184.16796875 C293.28953125 184.16796875 258.30953125 184.16796875 222.26953125 184.16796875 C222.26953125 151.49796875 222.26953125 118.82796875 222.26953125 85.16796875 C220.61953125 85.16796875 218.96953125 85.16796875 217.26953125 85.16796875 C217.26953125 112.22796875 217.26953125 139.28796875 217.26953125 167.16796875 C194.16953125 167.16796875 171.06953125 167.16796875 147.26953125 167.16796875 C147.26953125 168.81796875 147.26953125 170.46796875 147.26953125 172.16796875 C170.36953125 172.16796875 193.46953125 172.16796875 217.26953125 172.16796875 C217.26953125 176.12796875 217.26953125 180.08796875 217.26953125 184.16796875 C187.23953125 184.16796875 157.20953125 184.16796875 126.26953125 184.16796875 C124.28953125 176.24796875 124.28953125 176.24796875 122.26953125 168.16796875 C116.26894373 156.64684072 108.2590947 149.31697667 95.89453125 145.015625 C84.02556352 142.24023061 71.27782586 143.20207178 60.78125 149.7109375 C48.72909502 158.5626883 42.55670462 169.46600387 40.26953125 184.16796875 C30.10685792 184.78187464 21.2474923 183.00324605 11.5625 180.23046875 C10.10174624 179.82545001 8.64058107 179.42191245 7.17903137 179.01977539 C3.37574233 177.96912511 -0.42170668 176.89875805 -4.21820068 175.82385254 C-8.11016953 174.72581643 -12.00745153 173.64698154 -15.90429688 172.56640625 C-23.51827847 170.45210229 -31.126185 168.31688968 -38.73046875 166.16796875 C-38.87569728 149.6578122 -38.07275842 133.26445369 -37.08862305 116.78808594 C-36.88775733 113.38972955 -36.70752505 109.99125293 -36.5456543 106.59082031 C-35.53432542 85.54906784 -33.43103369 67.62887238 -24.73046875 48.16796875 C-24.169048 46.81086815 -23.6132543 45.45141478 -23.06518555 44.08886719 C-21.78469105 40.958523 -20.43673363 37.87414667 -19.04296875 34.79296875 C-18.60919922 33.80554688 -18.17542969 32.818125 -17.72851562 31.80078125 C-14.72743957 25.06276706 -11.35118447 18.59275644 -7.73046875 12.16796875 C-8.92285156 11.97460938 -10.11523438 11.78125 -11.34375 11.58203125 C-12.91021987 11.31938959 -14.4766227 11.05634787 -16.04296875 10.79296875 C-17.22149414 10.60347656 -17.22149414 10.60347656 -18.42382812 10.41015625 C-19.18115234 10.28125 -19.93847656 10.15234375 -20.71875 10.01953125 C-21.41524658 9.90432129 -22.11174316 9.78911133 -22.8293457 9.67041016 C-24.73046875 9.16796875 -24.73046875 9.16796875 -27.73046875 7.16796875 C-27.73046875 6.17796875 -27.73046875 5.18796875 -27.73046875 4.16796875 C-26.23326053 3.68014886 -24.73249511 3.20324512 -23.23046875 2.73046875 C-22.39515625 2.46363281 -21.55984375 2.19679687 -20.69921875 1.921875 C-13.85028996 0.18260756 -7.02467351 0.00910567 0 0 Z M27.95703125 14.04296875 C27.01620697 14.08226501 26.07538269 14.12156128 25.10604858 14.16204834 C22.4138851 14.27656339 19.72262924 14.40360881 17.03125 14.53515625 C16.2326355 14.56859131 15.434021 14.60202637 14.61120605 14.63647461 C6.96790235 14.96894761 6.96790235 14.96894761 0.6875 18.84765625 C-15.16329034 45.95979107 -15.16329034 45.95979107 -22.73046875 75.16796875 C7.95953125 75.16796875 38.64953125 75.16796875 70.26953125 75.16796875 C75.71710792 56.10475841 75.71710792 56.10475841 80.99462891 36.99536133 C81.4363441 35.37103751 81.88044149 33.74736002 82.32666016 32.12426758 C82.98700509 29.72217411 83.64076618 27.3183777 84.29296875 24.9140625 C84.59284195 23.82985268 84.59284195 23.82985268 84.89877319 22.72373962 C85.79915032 19.37456436 86.26953125 16.66905249 86.26953125 13.16796875 C66.80652592 12.92385966 47.40366823 13.17288147 27.95703125 14.04296875 Z M97.26953125 13.16796875 C95.57334794 21.10385582 93.87825273 29.03997418 92.18456268 36.9763937 C91.39815826 40.66121719 90.61137318 44.34595856 89.82373047 48.03051758 C89.06423216 51.58348576 88.30571769 55.13666265 87.54789734 58.68998909 C87.25798385 60.04849864 86.96771038 61.40693141 86.67707825 62.7652874 C86.27140824 64.66160191 85.86711405 66.55821059 85.46289062 68.45483398 C85.23194702 69.53627182 85.00100342 70.61770966 84.76306152 71.73191833 C84.23643783 73.91706003 84.23643783 73.91706003 84.26953125 75.16796875 C84.94190323 75.16352753 85.61427521 75.1590863 86.30702209 75.1545105 C94.98197249 75.09997998 103.6569401 75.06411492 112.33203125 75.04296875 C113.03083908 75.04125671 113.72964691 75.03954468 114.44963074 75.03778076 C135.7038382 74.99187303 156.88660619 75.35071941 178.11743164 76.45654297 C179.46180046 76.52541214 179.46180046 76.52541214 180.83332825 76.59567261 C182.43841448 76.67963608 184.04328475 76.76798767 185.64775085 76.86306763 C194.21142975 77.32523387 202.64670552 77.16796875 211.26953125 77.16796875 C211.26953125 56.37796875 211.26953125 35.58796875 211.26953125 14.16796875 C207.35394153 13.51537046 204.28959302 13.04323674 200.44790649 13.04771423 C199.53092987 13.04633957 198.61395325 13.0449649 197.66918945 13.04354858 C196.68088135 13.04714386 195.69257324 13.05073914 194.67431641 13.05444336 C193.09292374 13.05422432 193.09292374 13.05422432 191.47958374 13.05400085 C188.00589925 13.05469576 184.53226884 13.0624684 181.05859375 13.0703125 C178.64578277 13.07217818 176.23297141 13.07360138 173.82015991 13.07460022 C167.47771148 13.07841358 161.13528604 13.0882338 154.79284668 13.0993042 C148.31763012 13.1095437 141.84240983 13.11410328 135.3671875 13.11914062 C122.66795896 13.12985712 109.96874633 13.14672644 97.26953125 13.16796875 Z M220.26953125 14.16796875 C221.02931084 22.36537529 221.7938768 30.562315 222.56462765 38.75869656 C222.92233205 42.56425611 223.27835993 46.36995727 223.63061523 50.17602539 C223.97036077 53.84626552 224.3144331 57.51607616 224.66156197 61.18562508 C224.79349851 62.58856736 224.92385177 63.99165944 225.05262566 65.39489555 C225.23268455 67.35406209 225.41880015 69.31266916 225.60522461 71.27124023 C225.70959335 72.38820786 225.8139621 73.50517548 225.92149353 74.6559906 C226.00301168 77.10257334 226.00301168 77.10257334 227.26953125 78.16796875 C229.16301576 78.36620079 231.0638218 78.49423931 232.96484375 78.59765625 C234.26703857 78.66936035 235.5692334 78.74106445 236.91088867 78.81494141 C238.40541652 78.89133647 239.89996497 78.9673293 241.39453125 79.04296875 C242.53820663 79.10300079 242.53820663 79.10300079 243.70498657 79.16424561 C262.14361225 80.13060661 280.5922757 80.90299935 299.03926849 81.68973541 C301.4512661 81.79272259 303.8632379 81.89629872 306.27520752 81.99993896 C310.14030414 82.16569261 314.00550124 82.32889182 317.87078667 82.49018097 C319.31067185 82.55052365 320.75052927 82.61153313 322.1903553 82.67327118 C329.88774915 83.00245916 337.56452944 83.26399409 345.26953125 83.16796875 C346.07110883 81.35983 346.860223 79.54616502 347.64453125 77.73046875 C348.08539063 76.72113281 348.52625 75.71179688 348.98046875 74.671875 C350.49279343 70.56110156 351.41776371 66.45632313 352.26953125 62.16796875 C340.48054137 55.93603013 328.67433089 49.73734932 316.81396484 43.64208984 C310.95823573 40.6280756 305.14308259 37.56422453 299.3828125 34.37109375 C284.93108459 26.4438503 271.45917027 21.23264949 255.26953125 18.16796875 C253.08852966 17.7120381 250.90870112 17.25103349 248.72949219 16.78662109 C242.06868927 15.55669868 235.51880752 14.91641803 228.76171875 14.59375 C227.93986084 14.55141235 227.11800293 14.50907471 226.27124023 14.4654541 C224.27084221 14.36288824 222.2702083 14.26493966 220.26953125 14.16796875 Z M362.26953125 68.16796875 C361.40144045 70.07836927 360.55051342 71.99657612 359.70703125 73.91796875 C359.23136719 74.9853125 358.75570313 76.05265625 358.265625 77.15234375 C357.22798251 80.29375552 357.33397219 81.15370552 358.26953125 84.16796875 C376.76127205 85.05996078 376.76127205 85.05996078 395.26953125 85.16796875 C391.75549561 82.18567551 388.28502594 79.98822766 384.1640625 77.93359375 C383.01615234 77.35996094 381.86824219 76.78632813 380.68554688 76.1953125 C379.79863159 75.75807861 379.79863159 75.75807861 378.89379883 75.31201172 C377.0730826 74.41355291 375.25801368 73.50438008 373.44335938 72.59375 C368.09650916 69.51181546 368.09650916 69.51181546 362.26953125 68.16796875 Z M-20.60546875 93.66796875 C-21.75789063 93.76078125 -22.9103125 93.85359375 -24.09765625 93.94921875 C-25.40089844 94.0575 -25.40089844 94.0575 -26.73046875 94.16796875 C-27.66200839 103.88259646 -27.81524139 113.41911566 -27.73046875 123.16796875 C-22.45046875 123.16796875 -17.17046875 123.16796875 -11.73046875 123.16796875 C-9.94205781 113.20396495 -8.78141064 103.23017833 -7.73046875 93.16796875 C-12.05353586 93.11540866 -16.29703354 93.31625975 -20.60546875 93.66796875 Z M173.26953125 94.16796875 C173.26953125 96.14796875 173.26953125 98.12796875 173.26953125 100.16796875 C181.51953125 100.16796875 189.76953125 100.16796875 198.26953125 100.16796875 C198.26953125 98.18796875 198.26953125 96.20796875 198.26953125 94.16796875 C190.01953125 94.16796875 181.76953125 94.16796875 173.26953125 94.16796875 Z M242.26953125 94.16796875 C242.26953125 96.14796875 242.26953125 98.12796875 242.26953125 100.16796875 C250.51953125 100.16796875 258.76953125 100.16796875 267.26953125 100.16796875 C267.26953125 98.18796875 267.26953125 96.20796875 267.26953125 94.16796875 C259.01953125 94.16796875 250.76953125 94.16796875 242.26953125 94.16796875 Z M426.26953125 107.16796875 C426.46888361 112.33826862 426.82723949 117.18206876 428.26953125 122.16796875 C431.25916051 124.80780592 433.30073517 125.20411827 437.26953125 126.16796875 C437.26953125 120.22796875 437.26953125 114.28796875 437.26953125 108.16796875 C433.63953125 107.83796875 430.00953125 107.50796875 426.26953125 107.16796875 Z M441.26953125 109.16796875 C441.26953125 115.43796875 441.26953125 121.70796875 441.26953125 128.16796875 C443.93015625 129.61171875 446.59078125 131.05546875 449.33203125 132.54296875 C450.15582275 132.99462402 450.97961426 133.4462793 451.82836914 133.91162109 C456.25327065 136.28223651 460.38743783 137.98796742 465.26953125 139.16796875 C464.8807229 135.74753034 464.45367381 132.33292515 464.01953125 128.91796875 C463.90996094 127.94988281 463.80039062 126.98179687 463.6875 125.984375 C463.00224742 120.47780106 463.00224742 120.47780106 460.49609375 115.6328125 C458.01261952 113.99894788 455.70727407 112.9456256 452.89453125 111.98046875 C451.97929687 111.65691406 451.0640625 111.33335937 450.12109375 111 C446.78466117 109.96539446 446.78466117 109.96539446 441.26953125 109.16796875 Z " fill="#000000" transform="translate(38.73046875,143.83203125)"/>
<path d="M0 0 C9.3904663 7.39191225 13.95094752 17.20651238 15.4375 28.89453125 C15.92843192 38.39099563 12.97073072 48.38222116 6.8046875 55.66796875 C6.25039063 56.25191406 5.69609375 56.83585937 5.125 57.4375 C4.26261719 58.35982422 4.26261719 58.35982422 3.3828125 59.30078125 C-4.22082988 66.66779575 -12.96263998 69.89829111 -23.4375 70 C-34.78785282 69.78941366 -43.59610858 66.32831839 -51.875 58.4375 C-59.88361409 49.99985301 -62.54565845 40.1783058 -62.41137695 28.78320312 C-61.87537258 16.91434571 -56.51134076 8.37359692 -47.875 0.4375 C-34.05601366 -11.15261757 -14.33273773 -9.58797153 0 0 Z M-42.375 17.375 C-46.04545576 22.9117892 -47.45061281 27.76039141 -46.875 34.4375 C-45.41008325 41.0562602 -41.80779152 45.88253932 -36.875 50.4375 C-31.19545659 53.88977148 -26.49848594 54.87906573 -19.875 54.4375 C-13.36231951 52.83767326 -8.17659258 49.85041564 -4.39453125 44.2421875 C-1.06978641 38.30048663 0.15295712 33.19917353 -0.875 26.4375 C-2.81677764 20.0727844 -6.29850966 14.76701478 -11.9140625 11.109375 C-22.78050594 5.65695462 -34.68162231 7.64623841 -42.375 17.375 Z " fill="#000000" transform="translate(433.875,298.5625)"/>
<path d="M0 0 C9.28577886 7.30950523 13.98455264 17.10510684 15.40234375 28.70703125 C15.92330131 40.27228918 11.84407274 50.17375367 4.15625 58.59375 C-3.9441062 66.45931327 -12.68185169 69.89470765 -23.875 70.0625 C-35.02130015 69.89540993 -43.79148317 66.47060872 -51.90234375 58.68359375 C-60.94138844 48.39161217 -62.87697986 37.87369917 -62.10449219 24.63183594 C-60.97014379 13.78553447 -54.01771241 5.58945234 -45.9375 -1.1875 C-31.93388392 -10.99003125 -13.69278142 -9.15986889 0 0 Z M-42.375 17.375 C-46.12588807 23.04371502 -47.860905 28.59856406 -46.875 35.4375 C-44.7722036 42.74062521 -40.62003126 48.76544833 -33.92578125 52.53515625 C-27.81640535 55.11573742 -22.03229035 55.34011561 -15.75 53.25 C-8.64020556 50.21685873 -4.97647372 46.06114333 -1.79296875 39.1171875 C0.26702668 33.10375404 -0.1426157 27.65630824 -2.375 21.75 C-5.31156435 15.8768713 -9.92877194 11.91061403 -15.75 9 C-26.23207366 7.11322674 -35.43964934 8.60481143 -42.375 17.375 Z " fill="#000000" transform="translate(145.875,298.5625)"/>
<path d="M0 0 C3.51038651 2.59463351 4.77811815 4.23728114 6 8.4375 C6 12.53094236 5.22004022 14.59065251 3 18 C-1.01858595 20.6790573 -4.27641721 20.69610694 -9 20 C-11.87029869 18.20606332 -13.49131638 17.01736724 -15 14 C-15.42074378 10.94059163 -15.47999423 8.0540292 -15 5 C-10.58053726 -0.73335706 -6.94670018 -1.6767897 0 0 Z " fill="#000000" transform="translate(415,320)"/>
<path d="M0 0 C3.51038651 2.59463351 4.77811815 4.23728114 6 8.4375 C6 12.53094236 5.22004022 14.59065251 3 18 C-1.01858595 20.6790573 -4.27641721 20.69610694 -9 20 C-11.87029869 18.20606332 -13.49131638 17.01736724 -15 14 C-15.42074378 10.94059163 -15.47999423 8.0540292 -15 5 C-10.58053726 -0.73335706 -6.94670018 -1.6767897 0 0 Z " fill="#000000" transform="translate(127,320)"/>
<path d="M0 0 C3.85707252 0.56148937 5.60524849 2.24023567 8.30957031 4.96899414 C9.15013977 5.80979019 9.99070923 6.65058624 10.85675049 7.51686096 C11.75480408 8.43039841 12.65285767 9.34393585 13.578125 10.28515625 C14.96798615 11.68138466 14.96798615 11.68138466 16.38592529 13.1058197 C18.84539987 15.57673121 21.29573101 18.05651969 23.7442627 20.53826904 C26.24592051 23.07065253 28.75612622 25.5945313 31.265625 28.11914062 C36.18548013 33.07113953 41.09572753 38.03256949 46 43 C45.67 43.99 45.34 44.98 45 46 C41.55323 44.51657 39.32656699 42.56949812 36.69042969 39.91748047 C35.84986023 39.07675995 35.00929077 38.23603943 34.14324951 37.36984253 C33.24519592 36.46146637 32.34714233 35.55309021 31.421875 34.6171875 C30.4953009 33.68778351 29.56872681 32.75837952 28.61407471 31.80081177 C26.15684211 29.3359615 23.70567639 26.86516334 21.2557373 24.39306641 C18.75226191 21.86909235 16.24307937 19.35080612 13.734375 16.83203125 C8.81732475 11.89356403 3.90666212 6.948788 -1 2 C-0.67 1.34 -0.34 0.68 0 0 Z " fill="#000000" transform="translate(53,164)"/>
<path d="M0 0 C3.85707252 0.56148937 5.60524849 2.24023567 8.30957031 4.96899414 C9.15013977 5.80979019 9.99070923 6.65058624 10.85675049 7.51686096 C11.75480408 8.43039841 12.65285767 9.34393585 13.578125 10.28515625 C14.5046991 11.21597519 15.43127319 12.14679413 16.38592529 13.1058197 C18.84539987 15.57673121 21.29573101 18.05651969 23.7442627 20.53826904 C26.24592051 23.07065253 28.75612622 25.5945313 31.265625 28.11914062 C36.18548013 33.07113953 41.09572753 38.03256949 46 43 C45.67 43.99 45.34 44.98 45 46 C41.6173276 44.53199342 39.38997545 42.64793416 36.78222656 40.05688477 C35.5514035 38.84035973 35.5514035 38.84035973 34.29571533 37.59925842 C33.41953552 36.72216721 32.54335571 35.84507599 31.640625 34.94140625 C30.73624695 34.04131332 29.8318689 33.1412204 28.90008545 32.21385193 C26.99117202 30.3106798 25.0845453 28.40549197 23.18115234 26.49682617 C20.7393114 24.04917399 18.28625607 21.61311295 15.82995987 19.17997837 C13.48910423 16.85736755 11.15922768 14.52379933 8.828125 12.19140625 C7.94384827 11.31633926 7.05957153 10.44127228 6.14849854 9.53968811 C5.34055847 8.72551926 4.53261841 7.9113504 3.70019531 7.07250977 C2.98389954 6.35684341 2.26760376 5.64117706 1.52960205 4.90382385 C0 3 0 3 0 0 Z " fill="#000000" transform="translate(169,164)"/>
<path d="M0 0 C3.83689392 0.56514856 5.60041574 2.22100287 8.30957031 4.92138672 C9.15013977 5.75249969 9.99070923 6.58361267 10.85675049 7.43991089 C11.75480408 8.34403717 12.65285767 9.24816345 13.578125 10.1796875 C14.5046991 11.10339142 15.43127319 12.02709534 16.38592529 12.97879028 C18.34423274 14.93267895 20.29702111 16.89188093 22.24609375 18.85498047 C24.74676451 21.37276655 27.26069381 23.87681359 29.7788887 26.37705803 C32.17760201 28.76233878 34.5648355 31.15896929 36.953125 33.5546875 C38.31235077 34.90480423 38.31235077 34.90480423 39.69903564 36.28219604 C40.52699646 37.11961334 41.35495728 37.95703064 42.20800781 38.81982422 C42.94206848 39.55627167 43.67612915 40.29271912 44.43243408 41.05148315 C46 43 46 43 46 46 C42.56699701 44.51856023 40.32828517 42.58138096 37.69042969 39.94921875 C36.84986023 39.11495361 36.00929077 38.28068848 35.14324951 37.42114258 C34.24519592 36.51904053 33.34714233 35.61693848 32.421875 34.6875 C31.03201385 33.30050903 31.03201385 33.30050903 29.61407471 31.88549805 C27.6574163 29.93178301 25.70440857 27.97450889 23.75390625 26.01464844 C21.24984146 23.49915795 18.73686276 20.99279451 16.2211113 18.48899841 C13.82484056 16.1016736 11.4361985 13.70677812 9.046875 11.3125 C8.14072449 10.41039795 7.23457397 9.5082959 6.30096436 8.57885742 C5.47300354 7.74459229 4.64504272 6.91032715 3.79199219 6.05078125 C3.05793152 5.31512939 2.32387085 4.57947754 1.56756592 3.8215332 C0 2 0 2 0 0 Z " fill="#000000" transform="translate(285,172)"/>
<path d="M0 0 C3.56764285 1.51376081 5.83706287 3.60513129 8.546875 6.3515625 C9.39121094 7.20234375 10.23554688 8.053125 11.10546875 8.9296875 C12.41451172 10.26386719 12.41451172 10.26386719 13.75 11.625 C14.63816406 12.5221875 15.52632812 13.419375 16.44140625 14.34375 C18.63216969 16.55807004 20.81812763 18.77692435 23 21 C22.01 21.99 21.02 22.98 20 24 C13.07 17.07 6.14 10.14 -1 3 C-0.67 2.01 -0.34 1.02 0 0 Z " fill="#000000" transform="translate(178,178)"/>
<path d="M0 0 C5.43909855 2.36322105 9.1639623 6.75547305 13.3125 10.875 C14.16134766 11.69097656 15.01019531 12.50695312 15.88476562 13.34765625 C16.68205078 14.13785156 17.47933594 14.92804688 18.30078125 15.7421875 C19.03466064 16.4626123 19.76854004 17.18303711 20.5246582 17.92529297 C22 20 22 20 21.73120117 22.26611328 C21.48990479 22.8382959 21.2486084 23.41047852 21 24 C15.74825074 19.61557474 10.86777527 14.99157907 6.0625 10.125 C5.37865234 9.43664062 4.69480469 8.74828125 3.99023438 8.0390625 C2.32448536 6.36166489 0.6611378 4.68196209 -1 3 C-0.67 2.01 -0.34 1.02 0 0 Z " fill="#000000" transform="translate(62,178)"/>
<path d="M0 0 C5.43909855 2.36322105 9.1639623 6.75547305 13.3125 10.875 C14.16134766 11.69097656 15.01019531 12.50695312 15.88476562 13.34765625 C16.68205078 14.13785156 17.47933594 14.92804688 18.30078125 15.7421875 C19.03466064 16.4626123 19.76854004 17.18303711 20.5246582 17.92529297 C22 20 22 20 21.73120117 22.26611328 C21.48990479 22.8382959 21.2486084 23.41047852 21 24 C15.74825074 19.61557474 10.86777527 14.99157907 6.0625 10.125 C5.37865234 9.43664062 4.69480469 8.74828125 3.99023438 8.0390625 C2.32448536 6.36166489 0.6611378 4.68196209 -1 3 C-0.67 2.01 -0.34 1.02 0 0 Z " fill="#000000" transform="translate(184,172)"/>
<path d="M0 0 C3.56764285 1.51376081 5.83706287 3.60513129 8.546875 6.3515625 C9.39121094 7.20234375 10.23554688 8.053125 11.10546875 8.9296875 C12.41451172 10.26386719 12.41451172 10.26386719 13.75 11.625 C14.63816406 12.5221875 15.52632813 13.419375 16.44140625 14.34375 C18.63216969 16.55807004 20.81812763 18.77692435 23 21 C22.67 21.99 22.34 22.98 22 24 C16.56266945 19.47008204 11.53541069 14.65705784 6.5625 9.625 C5.83095703 8.88894531 5.09941406 8.15289062 4.34570312 7.39453125 C2.56147277 5.59863926 0.77963876 3.80044015 -1 2 C-0.67 1.34 -0.34 0.68 0 0 Z " fill="#000000" transform="translate(300,180)"/>
<path d="M0 0 C3.53816053 1.51031326 5.83366147 3.57593356 8.546875 6.28125 C9.39121094 7.12300781 10.23554688 7.96476563 11.10546875 8.83203125 C12.41451172 10.15267578 12.41451172 10.15267578 13.75 11.5 C14.63816406 12.38042969 15.52632813 13.26085937 16.44140625 14.16796875 C17.28058594 15.00972656 18.11976563 15.85148438 18.984375 16.71875 C19.75491211 17.49154297 20.52544922 18.26433594 21.31933594 19.06054688 C23 21 23 21 23 23 C19.05832302 22.44699865 17.22698069 20.6133078 14.453125 17.8515625 C13.60878906 17.01109375 12.76445312 16.170625 11.89453125 15.3046875 C11.02183594 14.42039063 10.14914062 13.53609375 9.25 12.625 C8.36183594 11.7484375 7.47367187 10.871875 6.55859375 9.96875 C5.71941406 9.12570313 4.88023437 8.28265625 4.015625 7.4140625 C3.24508789 6.6401416 2.47455078 5.8662207 1.68066406 5.06884766 C0 3 0 3 0 0 Z " fill="#000000" transform="translate(294,186)"/>
<path d="M0 0 C5.25174926 4.38442526 10.13222473 9.00842093 14.9375 13.875 C15.62134766 14.56335938 16.30519531 15.25171875 17.00976562 15.9609375 C18.67551464 17.63833511 20.3388622 19.31803791 22 21 C21.67 21.99 21.34 22.98 21 24 C15.74825074 19.61557474 10.86777527 14.99157907 6.0625 10.125 C5.37865234 9.43664062 4.69480469 8.74828125 3.99023438 8.0390625 C2.32448536 6.36166489 0.6611378 4.68196209 -1 3 C-0.67 2.01 -0.34 1.02 0 0 Z " fill="#000000" transform="translate(68,172)"/>
</svg>
